<svg
  width="78"
  height="30"
  viewBox="0 0 78 30"
  fill="none"
  xmlns="http://www.w3.org/2000/svg"
>
  <mask
    id="path-1-outside-1_793_47"
    maskUnits="userSpaceOnUse"
    x="-0.000488281"
    y="0"
    width="78"
    height="30"
    fill="black"
  >
    <rect fill="white" x="-0.000488281" width="78" height="30" />
    <path d="M17.8876 2.01266C12.6568 1.84548 10.1867 3.38541 9.89982 3.5775C9.87927 3.59125 9.8661 3.60896 9.85617 3.6314L6.28675 11.6939L4.45056 18.0556C4.42216 18.154 4.5086 18.2477 4.61089 18.2309C9.35365 17.454 13.0843 18.1627 20.8357 20.2752C28.7076 22.4205 35.3742 25.2573 47.6844 25.2573C59.0967 25.2573 73.6323 12.1134 75.6921 10.196C75.7846 10.1099 75.7122 9.96707 75.585 9.96874C72.5185 10.0089 69.7801 9.97787 68.9947 9.96711C68.8907 9.9657 68.8254 9.85696 68.8731 9.76558L71.8929 3.9662C71.9463 3.86344 71.7795 3.70711 71.6798 3.76792C68.6754 5.60319 51.9555 14.7827 35.3742 6.93848C27.6942 3.30534 21.9559 2.14269 17.8876 2.01266ZM14.7956 5.60687C15.4093 5.63912 16.0744 6.36983 16.1423 8.23786C16.1316 8.71791 15.8889 9.23101 15.9663 9.42997C15.9898 9.50832 17.9702 10.2301 17.9702 10.2301C17.9702 10.2301 18.6747 8.61244 19.1085 7.87381C19.92 5.86735 21.7136 7.00101 21.1896 8.24274C20.8419 10.1832 19.5816 13.8527 19.3111 14.7315C18.7034 16.4404 16.5062 16.7181 17.2599 14.4048C17.4574 13.513 17.6506 12.435 17.6506 12.435L15.2513 11.5276C15.2513 11.5276 14.7853 12.4459 14.3321 13.2923C13.5677 14.8252 10.8979 15.4272 12.4633 11.7378C13.2169 9.42457 13.5757 7.63437 13.7625 6.59231C13.8723 5.97917 14.3183 5.58179 14.7956 5.60687ZM26.067 7.82559C26.1009 7.82683 26.134 7.82949 26.1666 7.83291C26.3915 7.85127 26.6973 8.30245 26.9312 8.73599C27.6971 11.5912 26.3247 16.8427 26.0821 17.1954C25.2468 18.5265 23.7812 18.2748 24.3378 16.8367C24.5979 15.9631 24.8765 15.169 24.8765 15.169L22.9794 14.9598C21.4886 17.8171 20.1484 16.6208 20.9208 15.3865C21.7471 13.9405 23.5073 10.7748 24.3334 9.1786C24.9059 8.0542 25.5581 7.80705 26.067 7.82559ZM32.2482 10.0446C33.7852 10.0042 34.2231 11.4123 33.991 12.0574C33.8583 12.4369 33.3361 12.8679 32.5916 11.9293C31.3511 11.3161 30.573 13.822 30.2195 15.0839C30.0694 15.8342 29.9462 17.2295 30.6374 17.7791C31.045 18.1071 31.5496 18.0469 31.9217 18.0657C32.214 18.1019 32.7993 19.2253 31.0901 19.7323C30.7977 19.696 29.2921 19.6914 28.6713 18.2588C27.9883 16.7729 28.4212 14.5928 28.4212 14.5928C28.4212 14.5928 29.3221 10.0913 31.9261 10.0728C32.0385 10.0565 32.1457 10.0473 32.2482 10.0446ZM62.9714 10.1825C63.1811 10.1835 63.3764 10.2163 63.5589 10.2813C63.9862 10.5404 64.2625 11.2522 64.1473 11.8651C64.0141 12.398 63.792 12.8329 63.792 12.8329C64.5308 12.9064 65.0717 13.6338 65.2122 14.586C65.3528 15.5383 64.4436 16.4345 62.7528 16.9892C62.1832 17.1475 61.5782 17.1458 61.5514 16.9502C61.5333 16.5679 60.0977 12.0127 60.0977 12.0127C60.0528 11.737 59.9015 11.4346 60.649 11.0192C61.5831 10.462 62.3422 10.1792 62.9714 10.1825ZM25.6087 10.2361C25.5804 10.2311 25.5483 10.2385 25.5118 10.2599L23.7064 12.8511L25.5766 13.1661C25.5766 13.1661 26.0329 10.3106 25.6087 10.2361ZM36.3046 11.4306C36.8546 11.4221 37.5143 12.1348 37.4237 13.0112C37.4597 14.2162 37.0992 15.8071 37.0992 15.8071C37.0992 15.8071 37.2752 15.403 38.7912 14.141C40.3074 12.8792 40.6606 13.417 40.4671 14.1903C40.2822 14.9287 38.3432 16.831 38.3432 16.831C38.6166 16.9374 38.8994 17.7563 38.8994 17.7563C39.3321 18.8746 39.5619 19.7549 39.6239 20.406C39.5986 22.3056 37.8609 21.755 37.7282 20.7871C37.6041 19.7841 37.0649 17.4429 37.0649 17.4429L36.4477 17.5115C36.4477 17.5115 36.069 18.7239 35.7253 19.1979C34.3067 21.2692 33.0188 20.5706 33.653 19.3851C33.7323 19.2181 34.4019 18.0418 34.6749 17.4004C35.8198 14.7743 35.2458 13.3213 35.7036 11.9418C35.8274 11.5876 36.0547 11.4345 36.3046 11.4306ZM62.5206 11.4306C62.1361 11.4506 61.631 11.6707 61.1654 11.8294L61.7894 13.2712C61.7894 13.2712 63.3023 12.6713 63.1237 11.8708C63.0457 11.5206 62.8196 11.4151 62.5206 11.4306ZM58.0473 11.9854C58.3746 11.9831 58.7747 12.3565 59.0181 13.0142C59.3788 14.3171 59.7546 16.4218 59.5661 17.1702C59.3865 17.8827 59.1979 18.7828 58.2617 19.0029C58.0187 19.0557 55.9931 19.3434 55.2807 17.1569C54.595 14.8635 54.3788 14.2033 54.2972 13.463C54.2157 12.7227 54.9807 12.2702 55.4314 13.0651C55.7737 13.6812 56.1714 16.3573 56.7303 17.4825C57.0367 17.9381 57.6671 18.0202 57.9641 17.6022C58.3149 16.9702 58.0617 15.3914 57.845 14.1247C57.6915 13.518 57.5146 13.0542 57.5235 12.7154C57.5823 12.2163 57.7928 11.9872 58.0473 11.9854ZM50.4269 13.3725C50.7259 13.3857 51.0553 13.7825 51.2319 14.8558C51.6972 16.3353 51.5789 19.196 51.8021 19.4609C52.0254 19.7258 53.6869 19.3562 54.1369 19.2069C54.5867 19.0575 55.4159 19.2536 55.2285 19.6982C55.0768 20.1519 54.6479 20.1948 54.5586 20.2481C54.4692 20.3012 50.7132 21.3998 50.5738 20.6685C50.4344 19.937 50.4255 19.6005 50.285 18.355C50.1444 17.1093 49.8025 15.4035 49.793 14.3794C49.788 13.8354 50.088 13.3576 50.4269 13.3725ZM46.8023 13.7883C47.3308 13.795 47.8004 14.1002 48.1968 14.6527C48.5538 15.3551 48.3583 16.1458 47.3594 15.4325C47.2968 15.3784 46.9315 15.1703 46.575 15.3848C46.4859 15.4385 46.3167 15.5101 46.1385 15.7703C45.5417 16.6494 45.7208 18.2233 46.0511 19.0335C46.5512 20.2308 47.1483 20.5745 47.9417 20.2803C48.7348 19.986 48.7705 20.1477 48.9131 20.1842C49.0913 20.2298 49.5467 21.6069 47.6125 21.9156C45.6783 22.2242 44.5456 20.6741 44.4549 17.9765C44.4092 16.1693 44.8185 14.975 45.4691 14.3387C45.9447 13.9587 46.3913 13.7831 46.8023 13.7883ZM63.3516 13.8769C62.7233 13.8922 62.0036 14.3829 62.0036 14.3829C62.0036 14.3829 62.4317 16.1529 62.414 16.0729C62.4049 15.9573 64.6196 15.5221 64.1473 14.3829C63.9848 13.9913 63.6808 13.8689 63.3516 13.8769Z" />
    <path d="M9.90993 2.96611C9.90993 2.96611 10.0556 2.80071 10.331 2.83518C10.6064 2.86964 10.5385 3.18315 10.4348 3.38742C10.331 3.59169 7.71828 8.87721 5.82739 14.8391C3.9365 20.8011 4.08108 27.1717 4.08108 27.5184H2.00089C1.97254 26.8943 2.36663 20.8962 4.44843 14.8391C6.53023 8.78199 9.63403 3.17663 9.90993 2.96611Z" />
  </mask>
  <path
    d="M17.8876 2.01266C12.6568 1.84548 10.1867 3.38541 9.89982 3.5775C9.87927 3.59125 9.8661 3.60896 9.85617 3.6314L6.28675 11.6939L4.45056 18.0556C4.42216 18.154 4.5086 18.2477 4.61089 18.2309C9.35365 17.454 13.0843 18.1627 20.8357 20.2752C28.7076 22.4205 35.3742 25.2573 47.6844 25.2573C59.0967 25.2573 73.6323 12.1134 75.6921 10.196C75.7846 10.1099 75.7122 9.96707 75.585 9.96874C72.5185 10.0089 69.7801 9.97787 68.9947 9.96711C68.8907 9.9657 68.8254 9.85696 68.8731 9.76558L71.8929 3.9662C71.9463 3.86344 71.7795 3.70711 71.6798 3.76792C68.6754 5.60319 51.9555 14.7827 35.3742 6.93848C27.6942 3.30534 21.9559 2.14269 17.8876 2.01266ZM14.7956 5.60687C15.4093 5.63912 16.0744 6.36983 16.1423 8.23786C16.1316 8.71791 15.8889 9.23101 15.9663 9.42997C15.9898 9.50832 17.9702 10.2301 17.9702 10.2301C17.9702 10.2301 18.6747 8.61244 19.1085 7.87381C19.92 5.86735 21.7136 7.00101 21.1896 8.24274C20.8419 10.1832 19.5816 13.8527 19.3111 14.7315C18.7034 16.4404 16.5062 16.7181 17.2599 14.4048C17.4574 13.513 17.6506 12.435 17.6506 12.435L15.2513 11.5276C15.2513 11.5276 14.7853 12.4459 14.3321 13.2923C13.5677 14.8252 10.8979 15.4272 12.4633 11.7378C13.2169 9.42457 13.5757 7.63437 13.7625 6.59231C13.8723 5.97917 14.3183 5.58179 14.7956 5.60687ZM26.067 7.82559C26.1009 7.82683 26.134 7.82949 26.1666 7.83291C26.3915 7.85127 26.6973 8.30245 26.9312 8.73599C27.6971 11.5912 26.3247 16.8427 26.0821 17.1954C25.2468 18.5265 23.7812 18.2748 24.3378 16.8367C24.5979 15.9631 24.8765 15.169 24.8765 15.169L22.9794 14.9598C21.4886 17.8171 20.1484 16.6208 20.9208 15.3865C21.7471 13.9405 23.5073 10.7748 24.3334 9.1786C24.9059 8.0542 25.5581 7.80705 26.067 7.82559ZM32.2482 10.0446C33.7852 10.0042 34.2231 11.4123 33.991 12.0574C33.8583 12.4369 33.3361 12.8679 32.5916 11.9293C31.3511 11.3161 30.573 13.822 30.2195 15.0839C30.0694 15.8342 29.9462 17.2295 30.6374 17.7791C31.045 18.1071 31.5496 18.0469 31.9217 18.0657C32.214 18.1019 32.7993 19.2253 31.0901 19.7323C30.7977 19.696 29.2921 19.6914 28.6713 18.2588C27.9883 16.7729 28.4212 14.5928 28.4212 14.5928C28.4212 14.5928 29.3221 10.0913 31.9261 10.0728C32.0385 10.0565 32.1457 10.0473 32.2482 10.0446ZM62.9714 10.1825C63.1811 10.1835 63.3764 10.2163 63.5589 10.2813C63.9862 10.5404 64.2625 11.2522 64.1473 11.8651C64.0141 12.398 63.792 12.8329 63.792 12.8329C64.5308 12.9064 65.0717 13.6338 65.2122 14.586C65.3528 15.5383 64.4436 16.4345 62.7528 16.9892C62.1832 17.1475 61.5782 17.1458 61.5514 16.9502C61.5333 16.5679 60.0977 12.0127 60.0977 12.0127C60.0528 11.737 59.9015 11.4346 60.649 11.0192C61.5831 10.462 62.3422 10.1792 62.9714 10.1825ZM25.6087 10.2361C25.5804 10.2311 25.5483 10.2385 25.5118 10.2599L23.7064 12.8511L25.5766 13.1661C25.5766 13.1661 26.0329 10.3106 25.6087 10.2361ZM36.3046 11.4306C36.8546 11.4221 37.5143 12.1348 37.4237 13.0112C37.4597 14.2162 37.0992 15.8071 37.0992 15.8071C37.0992 15.8071 37.2752 15.403 38.7912 14.141C40.3074 12.8792 40.6606 13.417 40.4671 14.1903C40.2822 14.9287 38.3432 16.831 38.3432 16.831C38.6166 16.9374 38.8994 17.7563 38.8994 17.7563C39.3321 18.8746 39.5619 19.7549 39.6239 20.406C39.5986 22.3056 37.8609 21.755 37.7282 20.7871C37.6041 19.7841 37.0649 17.4429 37.0649 17.4429L36.4477 17.5115C36.4477 17.5115 36.069 18.7239 35.7253 19.1979C34.3067 21.2692 33.0188 20.5706 33.653 19.3851C33.7323 19.2181 34.4019 18.0418 34.6749 17.4004C35.8198 14.7743 35.2458 13.3213 35.7036 11.9418C35.8274 11.5876 36.0547 11.4345 36.3046 11.4306ZM62.5206 11.4306C62.1361 11.4506 61.631 11.6707 61.1654 11.8294L61.7894 13.2712C61.7894 13.2712 63.3023 12.6713 63.1237 11.8708C63.0457 11.5206 62.8196 11.4151 62.5206 11.4306ZM58.0473 11.9854C58.3746 11.9831 58.7747 12.3565 59.0181 13.0142C59.3788 14.3171 59.7546 16.4218 59.5661 17.1702C59.3865 17.8827 59.1979 18.7828 58.2617 19.0029C58.0187 19.0557 55.9931 19.3434 55.2807 17.1569C54.595 14.8635 54.3788 14.2033 54.2972 13.463C54.2157 12.7227 54.9807 12.2702 55.4314 13.0651C55.7737 13.6812 56.1714 16.3573 56.7303 17.4825C57.0367 17.9381 57.6671 18.0202 57.9641 17.6022C58.3149 16.9702 58.0617 15.3914 57.845 14.1247C57.6915 13.518 57.5146 13.0542 57.5235 12.7154C57.5823 12.2163 57.7928 11.9872 58.0473 11.9854ZM50.4269 13.3725C50.7259 13.3857 51.0553 13.7825 51.2319 14.8558C51.6972 16.3353 51.5789 19.196 51.8021 19.4609C52.0254 19.7258 53.6869 19.3562 54.1369 19.2069C54.5867 19.0575 55.4159 19.2536 55.2285 19.6982C55.0768 20.1519 54.6479 20.1948 54.5586 20.2481C54.4692 20.3012 50.7132 21.3998 50.5738 20.6685C50.4344 19.937 50.4255 19.6005 50.285 18.355C50.1444 17.1093 49.8025 15.4035 49.793 14.3794C49.788 13.8354 50.088 13.3576 50.4269 13.3725ZM46.8023 13.7883C47.3308 13.795 47.8004 14.1002 48.1968 14.6527C48.5538 15.3551 48.3583 16.1458 47.3594 15.4325C47.2968 15.3784 46.9315 15.1703 46.575 15.3848C46.4859 15.4385 46.3167 15.5101 46.1385 15.7703C45.5417 16.6494 45.7208 18.2233 46.0511 19.0335C46.5512 20.2308 47.1483 20.5745 47.9417 20.2803C48.7348 19.986 48.7705 20.1477 48.9131 20.1842C49.0913 20.2298 49.5467 21.6069 47.6125 21.9156C45.6783 22.2242 44.5456 20.6741 44.4549 17.9765C44.4092 16.1693 44.8185 14.975 45.4691 14.3387C45.9447 13.9587 46.3913 13.7831 46.8023 13.7883ZM63.3516 13.8769C62.7233 13.8922 62.0036 14.3829 62.0036 14.3829C62.0036 14.3829 62.4317 16.1529 62.414 16.0729C62.4049 15.9573 64.6196 15.5221 64.1473 14.3829C63.9848 13.9913 63.6808 13.8689 63.3516 13.8769Z"
    fill="#1C1C1C"
  />
  <path
    d="M9.90993 2.96611C9.90993 2.96611 10.0556 2.80071 10.331 2.83518C10.6064 2.86964 10.5385 3.18315 10.4348 3.38742C10.331 3.59169 7.71828 8.87721 5.82739 14.8391C3.9365 20.8011 4.08108 27.1717 4.08108 27.5184H2.00089C1.97254 26.8943 2.36663 20.8962 4.44843 14.8391C6.53023 8.78199 9.63403 3.17663 9.90993 2.96611Z"
    fill="#1C1C1C"
  />
  <path
    d="M17.8876 2.01266C12.6568 1.84548 10.1867 3.38541 9.89982 3.5775C9.87927 3.59125 9.8661 3.60896 9.85617 3.6314L6.28675 11.6939L4.45056 18.0556C4.42216 18.154 4.5086 18.2477 4.61089 18.2309C9.35365 17.454 13.0843 18.1627 20.8357 20.2752C28.7076 22.4205 35.3742 25.2573 47.6844 25.2573C59.0967 25.2573 73.6323 12.1134 75.6921 10.196C75.7846 10.1099 75.7122 9.96707 75.585 9.96874C72.5185 10.0089 69.7801 9.97787 68.9947 9.96711C68.8907 9.9657 68.8254 9.85696 68.8731 9.76558L71.8929 3.9662C71.9463 3.86344 71.7795 3.70711 71.6798 3.76792C68.6754 5.60319 51.9555 14.7827 35.3742 6.93848C27.6942 3.30534 21.9559 2.14269 17.8876 2.01266ZM14.7956 5.60687C15.4093 5.63912 16.0744 6.36983 16.1423 8.23786C16.1316 8.71791 15.8889 9.23101 15.9663 9.42997C15.9898 9.50832 17.9702 10.2301 17.9702 10.2301C17.9702 10.2301 18.6747 8.61244 19.1085 7.87381C19.92 5.86735 21.7136 7.00101 21.1896 8.24274C20.8419 10.1832 19.5816 13.8527 19.3111 14.7315C18.7034 16.4404 16.5062 16.7181 17.2599 14.4048C17.4574 13.513 17.6506 12.435 17.6506 12.435L15.2513 11.5276C15.2513 11.5276 14.7853 12.4459 14.3321 13.2923C13.5677 14.8252 10.8979 15.4272 12.4633 11.7378C13.2169 9.42457 13.5757 7.63437 13.7625 6.59231C13.8723 5.97917 14.3183 5.58179 14.7956 5.60687ZM26.067 7.82559C26.1009 7.82683 26.134 7.82949 26.1666 7.83291C26.3915 7.85127 26.6973 8.30245 26.9312 8.73599C27.6971 11.5912 26.3247 16.8427 26.0821 17.1954C25.2468 18.5265 23.7812 18.2748 24.3378 16.8367C24.5979 15.9631 24.8765 15.169 24.8765 15.169L22.9794 14.9598C21.4886 17.8171 20.1484 16.6208 20.9208 15.3865C21.7471 13.9405 23.5073 10.7748 24.3334 9.1786C24.9059 8.0542 25.5581 7.80705 26.067 7.82559ZM32.2482 10.0446C33.7852 10.0042 34.2231 11.4123 33.991 12.0574C33.8583 12.4369 33.3361 12.8679 32.5916 11.9293C31.3511 11.3161 30.573 13.822 30.2195 15.0839C30.0694 15.8342 29.9462 17.2295 30.6374 17.7791C31.045 18.1071 31.5496 18.0469 31.9217 18.0657C32.214 18.1019 32.7993 19.2253 31.0901 19.7323C30.7977 19.696 29.2921 19.6914 28.6713 18.2588C27.9883 16.7729 28.4212 14.5928 28.4212 14.5928C28.4212 14.5928 29.3221 10.0913 31.9261 10.0728C32.0385 10.0565 32.1457 10.0473 32.2482 10.0446ZM62.9714 10.1825C63.1811 10.1835 63.3764 10.2163 63.5589 10.2813C63.9862 10.5404 64.2625 11.2522 64.1473 11.8651C64.0141 12.398 63.792 12.8329 63.792 12.8329C64.5308 12.9064 65.0717 13.6338 65.2122 14.586C65.3528 15.5383 64.4436 16.4345 62.7528 16.9892C62.1832 17.1475 61.5782 17.1458 61.5514 16.9502C61.5333 16.5679 60.0977 12.0127 60.0977 12.0127C60.0528 11.737 59.9015 11.4346 60.649 11.0192C61.5831 10.462 62.3422 10.1792 62.9714 10.1825ZM25.6087 10.2361C25.5804 10.2311 25.5483 10.2385 25.5118 10.2599L23.7064 12.8511L25.5766 13.1661C25.5766 13.1661 26.0329 10.3106 25.6087 10.2361ZM36.3046 11.4306C36.8546 11.4221 37.5143 12.1348 37.4237 13.0112C37.4597 14.2162 37.0992 15.8071 37.0992 15.8071C37.0992 15.8071 37.2752 15.403 38.7912 14.141C40.3074 12.8792 40.6606 13.417 40.4671 14.1903C40.2822 14.9287 38.3432 16.831 38.3432 16.831C38.6166 16.9374 38.8994 17.7563 38.8994 17.7563C39.3321 18.8746 39.5619 19.7549 39.6239 20.406C39.5986 22.3056 37.8609 21.755 37.7282 20.7871C37.6041 19.7841 37.0649 17.4429 37.0649 17.4429L36.4477 17.5115C36.4477 17.5115 36.069 18.7239 35.7253 19.1979C34.3067 21.2692 33.0188 20.5706 33.653 19.3851C33.7323 19.2181 34.4019 18.0418 34.6749 17.4004C35.8198 14.7743 35.2458 13.3213 35.7036 11.9418C35.8274 11.5876 36.0547 11.4345 36.3046 11.4306ZM62.5206 11.4306C62.1361 11.4506 61.631 11.6707 61.1654 11.8294L61.7894 13.2712C61.7894 13.2712 63.3023 12.6713 63.1237 11.8708C63.0457 11.5206 62.8196 11.4151 62.5206 11.4306ZM58.0473 11.9854C58.3746 11.9831 58.7747 12.3565 59.0181 13.0142C59.3788 14.3171 59.7546 16.4218 59.5661 17.1702C59.3865 17.8827 59.1979 18.7828 58.2617 19.0029C58.0187 19.0557 55.9931 19.3434 55.2807 17.1569C54.595 14.8635 54.3788 14.2033 54.2972 13.463C54.2157 12.7227 54.9807 12.2702 55.4314 13.0651C55.7737 13.6812 56.1714 16.3573 56.7303 17.4825C57.0367 17.9381 57.6671 18.0202 57.9641 17.6022C58.3149 16.9702 58.0617 15.3914 57.845 14.1247C57.6915 13.518 57.5146 13.0542 57.5235 12.7154C57.5823 12.2163 57.7928 11.9872 58.0473 11.9854ZM50.4269 13.3725C50.7259 13.3857 51.0553 13.7825 51.2319 14.8558C51.6972 16.3353 51.5789 19.196 51.8021 19.4609C52.0254 19.7258 53.6869 19.3562 54.1369 19.2069C54.5867 19.0575 55.4159 19.2536 55.2285 19.6982C55.0768 20.1519 54.6479 20.1948 54.5586 20.2481C54.4692 20.3012 50.7132 21.3998 50.5738 20.6685C50.4344 19.937 50.4255 19.6005 50.285 18.355C50.1444 17.1093 49.8025 15.4035 49.793 14.3794C49.788 13.8354 50.088 13.3576 50.4269 13.3725ZM46.8023 13.7883C47.3308 13.795 47.8004 14.1002 48.1968 14.6527C48.5538 15.3551 48.3583 16.1458 47.3594 15.4325C47.2968 15.3784 46.9315 15.1703 46.575 15.3848C46.4859 15.4385 46.3167 15.5101 46.1385 15.7703C45.5417 16.6494 45.7208 18.2233 46.0511 19.0335C46.5512 20.2308 47.1483 20.5745 47.9417 20.2803C48.7348 19.986 48.7705 20.1477 48.9131 20.1842C49.0913 20.2298 49.5467 21.6069 47.6125 21.9156C45.6783 22.2242 44.5456 20.6741 44.4549 17.9765C44.4092 16.1693 44.8185 14.975 45.4691 14.3387C45.9447 13.9587 46.3913 13.7831 46.8023 13.7883ZM63.3516 13.8769C62.7233 13.8922 62.0036 14.3829 62.0036 14.3829C62.0036 14.3829 62.4317 16.1529 62.414 16.0729C62.4049 15.9573 64.6196 15.5221 64.1473 14.3829C63.9848 13.9913 63.6808 13.8689 63.3516 13.8769Z"
    stroke="white"
    stroke-width="4"
    mask="url(#path-1-outside-1_793_47)"
  />
  <path
    d="M9.90993 2.96611C9.90993 2.96611 10.0556 2.80071 10.331 2.83518C10.6064 2.86964 10.5385 3.18315 10.4348 3.38742C10.331 3.59169 7.71828 8.87721 5.82739 14.8391C3.9365 20.8011 4.08108 27.1717 4.08108 27.5184H2.00089C1.97254 26.8943 2.36663 20.8962 4.44843 14.8391C6.53023 8.78199 9.63403 3.17663 9.90993 2.96611Z"
    stroke="white"
    stroke-width="4"
    mask="url(#path-1-outside-1_793_47)"
  />
</svg>
