<svg
  width="69"
  height="30"
  viewBox="0 0 69 30"
  fill="none"
  xmlns="http://www.w3.org/2000/svg"
>
  <path
    d="M67.4446 24.942C67.4446 26.9685 65.8055 28.6113 63.7837 28.6113H61.9533C59.9315 28.6113 58.2925 26.9685 58.2925 24.942V10.2649H66.5294C67.0349 10.2649 67.4446 10.6756 67.4446 11.1822V24.942ZM24.7956 1C26.8174 1 28.4564 2.64279 28.4564 4.66928V24.8503C28.4564 26.8768 26.8174 28.5196 24.7956 28.5196H1.91522C1.40977 28.5196 1 28.1089 1 27.6023V1.91732C1 1.4107 1.40977 1 1.91522 1H24.7956ZM35.1375 1C37.1593 1 38.7984 2.64279 38.7984 4.66928V24.8503C38.7984 26.8768 37.1593 28.5196 35.1375 28.5196H33.3071C31.2853 28.5196 29.6462 26.8768 29.6462 24.8503V4.66928C29.6462 2.64279 31.2853 1 33.3071 1H35.1375ZM48.5912 14.3929C52.3821 14.3929 55.4553 17.4731 55.4553 21.2728C55.4553 25.0724 52.3821 28.1527 48.5912 28.1527C44.8003 28.1527 41.7271 25.0724 41.7271 21.2728C41.7271 17.4731 44.8003 14.3929 48.5912 14.3929ZM10.1522 18.4291C10.1522 18.9357 10.5619 19.3464 11.0674 19.3464H18.3891C18.8946 19.3464 19.3043 18.9357 19.3043 18.4291V11.0905C19.3043 10.5839 18.8946 10.1732 18.3891 10.1732H11.0674C10.5619 10.1732 10.1522 10.5839 10.1522 11.0905V18.4291ZM58.2925 10.2649H43.649C41.6272 10.2649 39.9882 8.6221 39.9882 6.59565V4.76101C39.9882 2.73452 41.6272 1.09173 43.649 1.09173H57.3772C57.8827 1.09173 58.2925 1.50243 58.2925 2.00905V10.2649Z"
    fill="#1C1C1C"
  />
  <path
    d="M67.4446 24.942C67.4446 26.9685 65.8055 28.6113 63.7837 28.6113H61.9533C59.9315 28.6113 58.2925 26.9685 58.2925 24.942V10.2649H66.5294C67.0349 10.2649 67.4446 10.6756 67.4446 11.1822V24.942ZM24.7956 1C26.8174 1 28.4564 2.64279 28.4564 4.66928V24.8503C28.4564 26.8768 26.8174 28.5196 24.7956 28.5196H1.91522C1.40977 28.5196 1 28.1089 1 27.6023V1.91732C1 1.4107 1.40977 1 1.91522 1H24.7956ZM35.1375 1C37.1593 1 38.7984 2.64279 38.7984 4.66928V24.8503C38.7984 26.8768 37.1593 28.5196 35.1375 28.5196H33.3071C31.2853 28.5196 29.6462 26.8768 29.6462 24.8503V4.66928C29.6462 2.64279 31.2853 1 33.3071 1H35.1375ZM48.5912 14.3929C52.3821 14.3929 55.4553 17.4731 55.4553 21.2728C55.4553 25.0724 52.3821 28.1527 48.5912 28.1527C44.8003 28.1527 41.7271 25.0724 41.7271 21.2728C41.7271 17.4731 44.8003 14.3929 48.5912 14.3929ZM10.1522 18.4291C10.1522 18.9357 10.5619 19.3464 11.0674 19.3464H18.3891C18.8946 19.3464 19.3043 18.9357 19.3043 18.4291V11.0905C19.3043 10.5839 18.8946 10.1732 18.3891 10.1732H11.0674C10.5619 10.1732 10.1522 10.5839 10.1522 11.0905V18.4291ZM58.2925 10.2649H43.649C41.6272 10.2649 39.9882 8.6221 39.9882 6.59565V4.76101C39.9882 2.73452 41.6272 1.09173 43.649 1.09173H57.3772C57.8827 1.09173 58.2925 1.50243 58.2925 2.00905V10.2649Z"
    fill="#1C1C1C"
  />
  <path
    d="M58.2925 10.2649V24.942C58.2925 26.9685 59.9315 28.6113 61.9533 28.6113H63.7837C65.8055 28.6113 67.4446 26.9685 67.4446 24.942V11.1822C67.4446 10.6756 67.0349 10.2649 66.5294 10.2649H58.2925ZM58.2925 10.2649H43.649C41.6272 10.2649 39.9882 8.6221 39.9882 6.59565V4.76101C39.9882 2.73452 41.6272 1.09173 43.649 1.09173H57.3772C57.8827 1.09173 58.2925 1.50243 58.2925 2.00905V10.2649ZM24.7956 1C26.8174 1 28.4564 2.64279 28.4564 4.66928V24.8503C28.4564 26.8768 26.8174 28.5196 24.7956 28.5196H1.91522C1.40977 28.5196 1 28.1089 1 27.6023V1.91732C1 1.4107 1.40977 1 1.91522 1H24.7956ZM35.1375 1C37.1593 1 38.7984 2.64279 38.7984 4.66928V24.8503C38.7984 26.8768 37.1593 28.5196 35.1375 28.5196H33.3071C31.2853 28.5196 29.6462 26.8768 29.6462 24.8503V4.66928C29.6462 2.64279 31.2853 1 33.3071 1H35.1375ZM48.5912 14.3929C52.3821 14.3929 55.4553 17.4731 55.4553 21.2728C55.4553 25.0724 52.3821 28.1527 48.5912 28.1527C44.8003 28.1527 41.7271 25.0724 41.7271 21.2728C41.7271 17.4731 44.8003 14.3929 48.5912 14.3929ZM10.1522 18.4291C10.1522 18.9357 10.5619 19.3464 11.0674 19.3464H18.3891C18.8946 19.3464 19.3043 18.9357 19.3043 18.4291V11.0905C19.3043 10.5839 18.8946 10.1732 18.3891 10.1732H11.0674C10.5619 10.1732 10.1522 10.5839 10.1522 11.0905V18.4291Z"
    stroke="white"
    stroke-width="2"
  />
</svg>
