<svg width="184" height="195" viewBox="0 0 184 195" fill="none" xmlns="http://www.w3.org/2000/svg">
<path d="M35.5029 102.5C35.7714 133.474 60.9627 158.5 92 158.5C123.033 158.5 148.22 133.481 148.496 102.514L183.496 103.486C183.234 153.797 142.372 194.5 92 194.5C41.6397 194.5 0.772082 152.818 0.50293 102.5H35.5029ZM147.497 102.5C147.229 132.922 122.485 157.5 92 157.5C61.515 157.5 36.7714 132.922 36.5029 102.5H147.497ZM183.5 0.5V102.485L148.5 101.513V0.5H183.5ZM35.5 0.5V101.5H0.5V0.5H35.5ZM36.5 0.5H147.5V101.5H36.5V0.5Z" stroke="#BEC3C8"/>
</svg>
