<svg width="531" height="300" viewBox="0 0 531 300" fill="none" xmlns="http://www.w3.org/2000/svg">
<path d="M409.133 19.8565L422.239 23.6905L424.52 24.3565L425.443 26.546C431.711 41.405 437.6 53.2829 443.101 62.2549C448.481 71.0311 453.275 76.6671 457.391 79.6954L457.787 79.9805L458.168 80.2471L458.492 80.5801C467.434 89.7471 483.901 99.6092 508.539 109.996L510.948 111.003L512.272 111.551L513.104 112.717L524.053 128.05L525.08 129.488L524.975 131.253C524.226 143.807 517.869 158.147 506.823 174.089C495.714 190.123 479.52 208.26 458.368 228.484L456.331 230.433L453.608 229.697C449.954 228.71 447.046 226.462 445.365 223C443.795 219.767 443.517 215.935 443.926 211.973L443.951 211.731L443.999 211.492L445.079 206.161L441.677 207.538L437.721 209.139L435.519 205.482L432.589 200.617L432.14 199.87L431.969 199.016L419.984 138.932L409.163 102.433C401.028 90.2488 395.246 80.553 391.971 73.4493C390.327 69.8838 389.149 66.6269 388.757 63.8672C388.484 61.9452 388.45 59.0102 390.165 56.71C392.105 47.0627 394.152 39.2688 396.341 33.4395C397.49 30.3779 398.731 27.7165 400.1 25.5655C401.433 23.4702 403.118 21.4911 405.312 20.2794L407.135 19.2725L409.133 19.8565ZM464.748 140.636C465.474 147.458 466.235 152.808 467.023 156.729C467.131 157.262 467.239 157.761 467.344 158.226L478.363 147.202L478.322 147.171L464.748 140.636ZM271.33 6.50397C277.186 8.48901 282.013 10.6709 285.568 13.1407C289.044 15.5552 292.031 18.7607 292.703 22.9854L292.951 24.5411L292.263 25.9571L287.174 36.4249L286.571 37.6651L285.418 38.421L263.368 52.8692L262.12 53.6876H251.957L250.898 50.1046L248.894 43.3223L248.41 41.6856L249.028 40.0948L259.051 14.294L259.532 13.0538L260.566 12.2178L266.58 7.3526L268.722 5.6192L271.33 6.50397ZM297.083 97.9297C297.083 111.795 302.169 135.941 312.791 170.857L316.354 178.235L316.832 164.065L301.771 45.6319L301.626 44.4864L301.998 43.3926C306.025 31.5462 309.548 22.5787 312.572 16.6661C314.06 13.758 315.588 11.2611 317.191 9.51959C318.408 8.19856 321.272 5.62568 324.997 6.65826C329.764 7.48267 333.918 9.48988 337.18 12.834C340.28 16.0127 342.304 20.1174 343.468 24.8467L343.689 25.8008L343.739 26.0303L343.768 26.2628L352.865 101.012L352.891 101.225L352.898 101.439L355.557 176.22L402.792 153.574L405.187 152.427L407.479 153.767L420.585 161.434L422.104 162.321L422.731 163.965C423.827 166.832 423.339 169.775 422.383 172.273C421.418 174.795 419.772 177.417 417.692 180.095C413.521 185.466 406.941 191.898 398.167 199.344L397.657 199.775L397.054 200.059L342.745 225.513L339.569 228.548L343.748 241.862L332.058 234.215L331.026 233.54L323.188 235.731L318.292 237.1L317.006 232.18L315.001 224.514L314.816 223.809L314.841 223.08L315.028 217.522C310.597 222.64 304.7 228.454 297.413 234.943L296.296 235.939L294.815 236.156C291.843 236.594 289.364 235.257 287.648 233.842C285.91 232.408 284.331 230.403 282.867 228.129C279.919 223.548 276.768 216.798 273.391 208.105L273.258 207.763L273.177 207.405L270.345 194.984L267.137 200.649L266.564 201.659L265.606 202.314L251.574 211.897L249.684 213.189L247.471 212.601C244.235 211.741 241.515 209.512 239.235 206.87C236.907 204.173 234.664 200.611 232.472 196.341C230.003 191.533 227.487 185.608 224.921 178.597C221.653 191.934 217.255 202.433 211.534 209.802L211.091 210.372L210.505 210.794L182.441 230.992L180.919 232.088L179.052 231.912C169.363 230.999 162.459 224.487 157.997 214.531L157.991 214.52L157.986 214.508L149.969 196.373L149.876 196.165L149.804 195.95C146.284 185.517 143.282 175.452 140.802 165.758C139.182 167.698 137.495 169.559 135.732 171.335L135.686 171.382L135.639 171.428L105.672 200.079C104.524 203.881 102.157 207.684 99.0156 211.45C95.3857 215.802 90.4329 220.446 84.2695 225.382L80.3643 228.51L77.2393 224.603L67.2168 212.07L66.2373 210.845L66.1328 209.279L65.0635 193.213L61.71 166.696C58.9238 166.833 56.2647 166.48 53.9121 165.367C49.6145 163.335 47.5328 159.392 47.0332 154.957L46.9727 154.417L47.0283 153.877L49.0332 134.711L49.1328 133.761L49.5752 132.914L52.3877 127.533L30.8623 85.2637C21.0114 73.9351 13.9079 64.8205 9.73047 58.0098C7.64203 54.6049 6.06746 51.4338 5.37988 48.6524C4.85236 46.5183 4.59944 43.3868 6.40234 40.8575C8.65821 31.1227 11.0657 23.4426 13.7002 18.0411C15.0701 15.2323 16.6327 12.7609 18.4844 10.9288C20.3672 9.06582 22.873 7.56653 25.9424 7.56647H26.7852L27.582 7.84283C41.2343 12.5801 51.0966 20.6253 56.4307 32.1993C64.8266 46.4089 84.319 60.3032 116.457 73.3506L118.004 73.9747L118.985 74.3663L119.724 75.1221C125.428 80.9609 127.098 88.3182 125.04 96.3995C123.963 100.628 121.877 105.041 118.908 109.631C123.655 108.663 128.056 108.023 132.096 107.731C131.981 102.468 132.094 97.3653 132.438 92.4239L132.438 92.4053L132.44 92.3878C134.509 65.3899 142.004 46.3346 157.391 39.2774L160.058 38.0538L162.427 39.7862L175.533 49.3692L178.425 51.4835L177.353 54.9024C174.017 65.5337 173.838 83.0809 177.408 108.137L179.563 107.027L180.471 114.102L182.646 131.06L192.605 125.933L185.073 139.976C185.07 140.035 184.952 140.566 185.056 141.903C185.184 143.563 185.603 145.878 186.401 148.931C187.051 151.415 187.925 154.285 189.025 157.545L203.38 100.933C199.211 91.5771 198.328 82.1614 201.053 72.8936C203.906 63.1894 210.557 54.1759 220.368 45.7745L221.506 44.7999L222.991 44.6114C230.615 43.6444 236.608 47.8278 240.901 54.546C245.08 61.0835 248.212 70.7372 250.561 83.0245C250.992 84.8817 251.42 86.7106 251.846 88.5118C251.892 88.1921 251.938 87.8731 251.989 87.5557L252.137 86.6387L252.604 85.835L262.626 68.585L263.401 67.252L264.793 66.586L268.802 64.67L269.969 64.1124L271.26 64.1895C278.515 64.6271 284.468 67.991 288.827 73.9239C293.034 79.6496 295.638 87.582 297.031 97.2149L297.083 97.5704V97.9297Z" stroke="#00BE5A" stroke-width="10"/>
<path d="M307.709 196.294H308.78C313.665 196.294 317.178 198.534 319.32 203.015C320.034 204.983 320.39 207.077 320.39 209.3C320.39 211.157 319.414 216.604 317.46 225.638C316.596 229.828 316.163 233.325 316.163 236.13C316.163 240.575 317.535 243.161 320.278 243.89C320.917 244.036 321.743 244.145 322.758 244.218C324.711 244.218 327.642 243.653 331.55 242.524C332.001 242.524 332.32 242.797 332.508 243.344C331.193 250.702 330.423 254.546 330.197 254.874C329.934 255.092 329.145 255.202 327.83 255.202H325.463C331.212 259.937 334.086 266.058 334.086 273.562C334.086 281.358 331.155 287.697 325.294 292.579C323.528 294.218 320.578 295.512 316.445 296.459C314.041 297.042 311.636 297.333 309.231 297.333C301.491 297.333 295.611 294.237 291.59 288.043C289.186 284.583 287.983 280.976 287.983 277.224C287.983 270.885 291.515 264.71 298.579 258.699H298.523L289.392 259.901C288.904 259.901 288.585 259.555 288.434 258.863C289.111 255.985 289.449 252.779 289.449 249.245V246.677C289.449 245.948 290.388 245.584 292.267 245.584C292.267 245.511 292.661 245.456 293.45 245.42C291.985 236.13 291.252 227.679 291.252 220.065V217.059C291.252 209.846 291.853 205.402 293.056 203.726C295.01 200.702 298.504 198.425 303.539 196.895C305.154 196.494 306.545 196.294 307.709 196.294ZM293.225 218.535C293.225 226.804 294.089 236.531 295.817 247.715L295.874 248.972C295.686 249.482 295.367 249.737 294.916 249.737H294.859C294.07 249.737 293.676 248.954 293.676 247.387L291.59 247.606V248.152C291.59 252.05 291.327 255.22 290.801 257.661C297.039 256.932 301.604 256.167 304.497 255.366C306.15 254.855 308.104 254.491 310.358 254.273C310.809 254.273 311.11 254.637 311.26 255.366C311.26 256.021 310.358 256.422 308.555 256.568C304.572 257.26 302.581 257.788 302.581 258.152C294.239 264.455 290.069 270.703 290.069 276.896V277.606C290.069 282.451 292.53 287.133 297.452 291.65C300.646 294.091 304.422 295.311 308.78 295.311H309.738C313.571 295.311 317.46 294.455 321.405 292.743C325.613 290.557 328.863 286.44 331.155 280.393C331.681 278.317 331.944 276.167 331.944 273.945V273.235C331.944 265.584 328.525 259.482 321.687 254.928L321.518 254.437V254.163C321.518 253.544 322.213 253.234 323.603 253.234L328.563 253.18L330.141 244.983C327.36 245.784 325.068 246.185 323.265 246.185H322.307C318.286 246.185 315.675 244.163 314.473 240.119C314.247 238.917 314.116 237.551 314.078 236.021C314.078 232.487 315.299 225.11 317.742 213.89C318.08 212.214 318.249 210.72 318.249 209.409V208.972C318.249 203.034 315.675 199.518 310.527 198.425L308.329 198.261C303.67 198.261 299.5 200.01 295.817 203.507C294.465 205.037 293.788 206.804 293.788 208.808C293.563 209.646 293.375 212.888 293.225 218.535Z" fill="#3A5190"/>
<path d="M336.564 196.403C341.598 196.403 345.168 198.498 347.272 202.687C348.136 204.582 348.568 206.768 348.568 209.245V209.627C348.568 211.012 347.798 215.875 346.258 224.218C345.356 229.682 344.51 235.748 343.721 242.415H343.834C344.473 242.123 345.074 241.977 345.638 241.977H345.976C346.652 241.977 349 242.433 353.021 243.344L355.106 243.453H356.008C356.91 243.453 358.149 243.252 359.728 242.852H359.784C360.31 242.852 360.648 243.198 360.798 243.89L358.544 255.147C358.206 255.402 357.943 255.529 357.755 255.529L354.204 255.147C356.759 257.661 358.413 259.828 359.164 261.65C361.231 266.021 362.264 270.539 362.264 275.202C362.264 281.832 359.483 287.697 353.922 292.798C351.217 294.838 349.376 295.858 348.399 295.858C344.98 296.878 341.655 297.388 338.423 297.388C333.163 297.388 328.805 296.022 325.348 293.289L325.179 292.798V292.634C325.179 292.196 325.479 291.905 326.081 291.759H326.306C326.456 291.759 327.321 292.251 328.899 293.235C331.604 294.619 334.704 295.311 338.198 295.311H338.762C342.669 295.311 346.333 294.619 349.752 293.235C353.922 290.976 357.079 287.023 359.22 281.377C359.822 279.592 360.122 277.697 360.122 275.694V274.601C360.122 268.954 358.431 263.726 355.05 258.917C353.434 257.169 352.25 256.131 351.499 255.803C351.499 257.223 351.142 257.934 350.428 257.934L346.258 257.551C345.882 260.284 345.694 263.38 345.694 266.841C345.694 267.351 345.318 267.661 344.567 267.77C343.928 267.77 343.458 266.896 343.158 265.147C341.429 259.427 340.565 256.367 340.565 255.967C340.565 255.529 340.885 255.238 341.523 255.092L349.414 255.803L349.47 254.6C344.097 253.981 341.279 253.58 341.016 253.398C340.791 253.18 340.678 252.961 340.678 252.743V252.524C340.678 252.087 340.978 251.795 341.58 251.65L356.853 253.398L358.431 245.256C357.417 245.438 356.384 245.529 355.331 245.529C353.791 245.529 350.935 245.038 346.765 244.054L345.976 243.945C344.924 243.945 344.21 244.455 343.834 245.475C343.383 247.078 342.97 247.879 342.594 247.879H342.143C341.655 247.879 341.354 247.533 341.241 246.841C341.241 242.906 342.763 232.251 345.807 214.873C346.295 212.615 346.539 210.83 346.539 209.518C346.539 204.272 344.642 200.83 340.847 199.19C339.494 198.717 338.142 198.48 336.789 198.48H336.225C332.243 198.48 328.41 199.937 324.728 202.851C323.3 204.381 322.436 205.693 322.135 206.786C321.91 207.004 321.628 207.114 321.29 207.114H321.234C320.557 206.968 320.219 206.64 320.219 206.13C320.895 203.58 323.037 201.212 326.644 199.026C330.063 197.278 333.37 196.403 336.564 196.403ZM342.2 257.223L342.989 260.12H343.045C343.045 259.537 343.158 258.608 343.383 257.333H343.214L342.2 257.223Z" fill="#3A5190"/>
<path d="M364.91 196.239H365.08C370.49 196.239 374.191 198.68 376.182 203.562C376.784 205.238 377.084 207.096 377.084 209.136V209.245C376.258 218.607 375.074 230.047 373.534 243.562C373.458 243.562 373.364 244.218 373.252 245.529C373.252 247.424 374.304 248.753 376.408 249.518C377.159 249.737 378.024 249.846 379 249.846H379.17L381.537 249.737C382.025 249.919 382.269 250.229 382.269 250.666V250.83C382.269 251.012 381.743 252.396 380.691 254.983C388.093 258.772 391.794 264.983 391.794 273.617C391.794 279.919 389.709 285.311 385.538 289.792C382.871 293.071 379.996 295.165 376.915 296.076C373.233 297.096 369.814 297.606 366.658 297.606C361.36 297.606 357.076 296.258 353.808 293.563L353.751 293.18V293.016C353.751 292.47 354.108 292.142 354.822 292.032C354.972 292.032 355.987 292.634 357.865 293.836C360.496 294.965 363.22 295.53 366.038 295.53H367.165C370.584 295.53 374.154 294.874 377.873 293.563C379.188 292.98 380.879 291.668 382.946 289.628C385.576 286.714 387.229 284.364 387.905 282.579C389.07 279.774 389.653 277.023 389.653 274.327V272.852C389.653 264.109 384.956 258.207 375.563 255.147L364.009 251.431C362.844 250.848 362.262 250.138 362.262 249.3C362.487 248.316 363.182 247.824 364.347 247.824C366.113 247.824 368.123 248.972 370.377 251.267L378.831 254.109C379.32 252.906 379.564 252.178 379.564 251.923C375.356 251.923 372.669 250.502 371.505 247.661C371.317 246.823 371.223 246.13 371.223 245.584V245.42C372.763 231.613 374.022 219.573 374.999 209.3C374.999 203.653 372.801 200.137 368.405 198.753C367.728 198.534 366.564 198.37 364.91 198.261C360.665 198.261 356.682 199.809 352.962 202.906C351.534 204.436 350.745 205.638 350.595 206.513C350.332 206.841 349.994 207.004 349.581 207.004C349.054 207.004 348.735 206.622 348.622 205.857C349.599 203.125 351.609 200.884 354.653 199.136C358.035 197.205 361.454 196.239 364.91 196.239ZM348.679 245.912C348.867 245.912 349.881 246.549 351.722 247.824C355.818 250.156 360.853 252.251 366.827 254.109C373.289 255.857 376.521 257.242 376.521 258.262V258.426C376.521 258.899 376.182 259.227 375.506 259.409L374.83 259.245C371.523 263.216 369.513 265.493 368.799 266.076L368.405 266.131C367.728 265.985 367.39 265.621 367.39 265.038L370.265 257.223C364.065 255.511 358.824 253.635 354.54 251.595C351.872 250.32 349.637 248.99 347.833 247.606C347.683 247.387 347.608 247.169 347.608 246.95C347.796 246.258 348.153 245.912 348.679 245.912ZM372.181 257.934L371.505 259.901C371.73 259.755 372.237 259.191 373.026 258.207L372.181 257.934Z" fill="#3A5190"/>
<path d="M393.765 197.933C399.1 197.933 402.763 200.319 404.755 205.092C405.356 206.841 405.657 208.717 405.657 210.72V210.775C405.657 212.815 404.755 217.952 402.951 226.185C401.974 230.702 401.486 234.4 401.486 237.278V237.606C401.486 242.815 403.571 245.42 407.742 245.42H408.08C410.222 245.42 413.059 244.874 416.59 243.781H416.703C417.116 243.781 417.436 244.09 417.661 244.71L415.463 255.803C415.238 256.131 414.881 256.294 414.392 256.294L410.729 256.404C416.403 261.176 419.239 267.242 419.239 274.601C419.239 282.652 416.008 289.136 409.545 294.054C408.193 295.184 406.07 296.058 403.177 296.677C400.321 297.26 397.804 297.552 395.624 297.552C390.59 297.552 386.306 296.258 382.774 293.672C382.624 293.49 382.549 293.253 382.549 292.961V292.907C382.662 292.324 382.943 292.032 383.394 292.032H383.676C383.826 292.032 384.615 292.47 386.043 293.344C388.824 294.765 391.848 295.475 395.117 295.475H396.132C399.626 295.475 403.139 294.819 406.671 293.508C410.842 291.249 413.96 287.388 416.027 281.923C416.741 279.992 417.098 277.679 417.098 274.983V274.218C417.098 266.677 413.735 260.648 407.009 256.131C406.784 255.839 406.671 255.584 406.671 255.366C406.671 254.819 407.103 254.491 407.967 254.382L413.772 254.327L415.238 246.185C412.42 247.023 409.996 247.442 407.967 247.442C403.985 247.442 401.336 245.693 400.021 242.196C399.57 240.447 399.344 238.844 399.344 237.387C399.344 233.744 400.622 226.167 403.177 214.655C403.402 213.27 403.515 212.196 403.515 211.431V210.065C403.515 205.584 401.73 202.487 398.161 200.775C396.808 200.228 395.361 199.955 393.821 199.955H393.426C389.256 199.955 385.348 201.54 381.704 204.709C380.614 205.912 379.881 207.077 379.505 208.207C379.205 208.389 378.961 208.48 378.773 208.48H378.716C378.003 208.443 377.646 208.116 377.646 207.496C378.698 204.618 380.727 202.341 383.732 200.666C387.114 198.844 390.458 197.933 393.765 197.933ZM397.428 254.327C398.142 254.509 398.499 254.855 398.499 255.366C398.499 256.021 397.804 256.404 396.414 256.513C395.023 256.513 391.961 257.57 387.227 259.682C386.062 260.01 385.085 260.174 384.296 260.174C383.77 260.029 383.507 259.628 383.507 258.972C383.507 258.462 384.259 258.116 385.761 257.934C386.55 257.788 388.542 257.041 391.736 255.693C394.403 254.783 396.301 254.327 397.428 254.327Z" fill="#3A5190"/>
<path d="M421.379 196.294H421.717C426.902 196.294 430.509 198.589 432.538 203.179C433.252 204.928 433.609 206.932 433.609 209.19V209.354C433.609 211.831 433.083 214.928 432.031 218.644C430.791 221.74 429.081 223.981 426.902 225.365V225.42H426.958C429.175 225.201 430.979 224.855 432.369 224.382H432.538C432.951 224.382 433.252 224.673 433.44 225.256C432.538 232.651 432.012 236.531 431.862 236.895C431.862 237.187 430.584 237.369 428.029 237.442C428.743 239.81 429.983 242.615 431.749 245.857C435.168 250.921 437.836 255.129 439.752 258.48C441.105 260.921 442.382 263.781 443.585 267.06C445.05 272.014 445.783 275.439 445.783 277.333V277.825C445.783 283.945 443.735 288.717 439.639 292.142C437.611 294 435.751 295.202 434.06 295.748C430.302 296.805 426.902 297.333 423.859 297.333H422.844C417.922 297.333 413.714 295.967 410.219 293.235L410.107 292.852V292.688C410.257 292.032 410.595 291.705 411.121 291.705H411.234L414.503 293.563C417.246 294.728 420.252 295.311 423.52 295.311C426.902 295.311 430.472 294.71 434.229 293.508C440.504 289.901 443.641 285.02 443.641 278.863V277.005C443.641 274.856 442.683 271.012 440.767 265.475C439.264 261.431 435.882 255.584 430.622 247.934C427.729 242.943 426.094 239.118 425.719 236.458V236.404C425.719 235.711 426.827 235.365 429.044 235.365L430.058 235.311L431.129 226.895C428.424 227.405 425.493 227.66 422.337 227.66H421.435C418.317 227.66 415.329 227.314 412.474 226.622C411.91 226.476 411.027 226.404 409.825 226.404H409.149C407.157 226.404 404.659 226.768 401.653 227.496H401.54C401.052 227.496 400.751 227.15 400.638 226.458C400.638 225.73 401.747 225.238 403.964 224.983C405.805 224.546 407.702 224.327 409.656 224.327C410.971 224.327 413.451 224.691 417.095 225.42C419.087 225.602 420.947 225.693 422.675 225.693C422.825 225.475 423.821 224.855 425.662 223.835C427.879 222.196 429.438 219.901 430.34 216.95C430.979 214.436 431.373 211.923 431.524 209.409C431.524 203.908 429.457 200.392 425.324 198.862C423.783 198.498 422.487 198.316 421.435 198.316C417.039 198.316 413 199.937 409.318 203.179C408.228 204.309 407.514 205.438 407.176 206.567C406.875 206.859 406.537 207.004 406.162 207.004C405.673 207.004 405.354 206.64 405.203 205.912C405.354 204.746 406.537 203.07 408.754 200.884C412.774 197.824 416.983 196.294 421.379 196.294Z" fill="#3A5190"/>
<path d="M449.275 196.294H450.571C455.042 196.294 458.424 198.261 460.716 202.196C461.73 204.309 462.238 206.604 462.238 209.081V209.518L457.729 243.234H457.785C458.311 242.906 458.762 242.742 459.138 242.742H459.645C463.252 243.945 465.225 244.546 465.563 244.546C466.84 244.837 468.118 244.983 469.395 244.983C470.748 244.983 471.932 244.619 472.946 243.89L473.397 243.781C473.81 243.781 474.13 244.109 474.355 244.764C473.604 250.812 473.134 254.036 472.946 254.437C472.645 254.728 472.232 254.874 471.706 254.874H470.692L469.452 254.928C473.998 260.393 476.271 266.513 476.271 273.289V273.672C476.271 283.144 472.589 290.393 465.225 295.42C463.571 296.441 461.674 296.951 459.532 296.951C457.165 296.951 455.117 296.113 453.389 294.437C451.247 296.295 449.087 297.224 446.908 297.224C444.278 297.224 441.816 296.04 439.525 293.672L439.355 293.071C439.543 292.415 439.863 292.087 440.314 292.087H440.539C440.877 292.087 441.46 292.524 442.286 293.399C443.864 294.528 445.292 295.093 446.57 295.093H446.964C450.984 295.093 454.685 291.267 458.067 283.617C459.382 279.828 460.04 276.204 460.04 272.743C460.04 266.95 458.311 261.468 454.854 256.294L454.798 255.857C454.798 255.238 455.512 254.874 456.94 254.764C457.954 254.692 458.969 254.291 459.983 253.562C460.397 253.271 460.866 252.633 461.392 251.65C461.618 251.431 461.843 251.322 462.069 251.322H462.294C462.745 251.322 463.045 251.613 463.196 252.196V252.305C463.196 252.524 461.975 255.238 459.532 260.448C461.261 264.346 462.125 268.298 462.125 272.306V273.125C462.125 280.375 459.701 287.005 454.854 293.016C456.132 294.255 457.616 294.874 459.307 294.874H459.983C461.899 294.874 463.703 294.164 465.394 292.743C471.255 288.153 474.186 281.741 474.186 273.508C474.186 266.185 471.537 259.883 466.239 254.6C466.089 254.6 465.976 254.364 465.901 253.89C466.126 253.234 466.483 252.906 466.972 252.906C469.752 252.87 471.143 252.815 471.143 252.743L471.988 246.732H471.875C471.199 246.914 470.447 247.005 469.621 247.005H468.775C466.634 247.005 463.478 246.258 459.307 244.764C458.555 244.764 457.748 246.513 456.883 250.01C456.883 251.067 456.526 251.686 455.813 251.868H455.7C454.986 251.759 454.629 251.431 454.629 250.885C455.531 243.562 457.372 229.81 460.152 209.627C460.152 204.199 458.236 200.666 454.404 199.026C452.938 198.553 451.454 198.316 449.951 198.316C445.142 198.316 440.877 200.137 437.157 203.78C436.481 204.618 435.917 205.602 435.467 206.731C435.241 206.913 434.959 207.041 434.621 207.114C434.058 207.114 433.701 206.731 433.55 205.966C434.49 203.307 436.481 201.048 439.525 199.19C443.094 197.259 446.344 196.294 449.275 196.294ZM457.616 256.896L458.405 257.934L459.025 256.404H458.969L457.616 256.896Z" fill="#3A5190"/>
<path d="M478.523 196.239C484.084 196.239 487.86 198.698 489.852 203.616C490.453 205.438 490.754 207.351 490.754 209.354C490.754 211.212 489.57 217.97 487.203 229.628L485.118 240.994L486.132 240.83C486.884 240.83 489.063 241.486 492.67 242.797C494.323 243.307 495.826 243.562 497.179 243.562C498.268 243.562 499.903 243.289 502.082 242.742C502.608 242.925 502.871 243.271 502.871 243.781C501.631 250.921 500.898 254.692 500.673 255.092C500.673 255.347 499.546 255.602 497.291 255.857C499.471 258.043 501.086 260.393 502.138 262.907C503.679 266.914 504.449 270.885 504.449 274.819C504.449 281.595 501.781 287.479 496.446 292.47C494.116 294.4 492.181 295.512 490.641 295.803C487.222 296.823 483.84 297.333 480.496 297.333C475.273 297.333 470.896 295.967 467.364 293.235L467.308 292.852V292.634C467.383 292.014 467.684 291.705 468.21 291.705H468.435L471.535 293.508C474.315 294.674 477.114 295.257 479.932 295.257H481.172C484.667 295.257 488.217 294.583 491.824 293.235C495.995 291.012 499.189 287.042 501.406 281.322C502.007 279.391 502.307 277.333 502.307 275.147V274.273C502.307 268.116 500.485 262.815 496.84 258.371C495.112 256.477 493.572 255.529 492.219 255.529L483.99 254.273C483.99 255.293 484.235 255.803 484.723 255.803C488.142 256.276 489.852 256.622 489.852 256.841L490.021 257.387V257.497C490.021 257.97 489.626 258.389 488.837 258.754C487.673 260.429 487.09 262.852 487.09 266.021C486.902 266.386 486.696 266.604 486.47 266.677H485.963C485.324 266.677 484.836 265.748 484.498 263.89L482.581 257.551C480.327 257.296 479.2 256.968 479.2 256.568L479.087 256.131C479.275 255.475 479.613 255.147 480.102 255.147L482.074 255.366C481.849 254.746 481.736 254.09 481.736 253.398V253.125C481.849 252.396 482.206 252.032 482.807 252.032C490.397 253.271 494.812 253.89 496.051 253.89C497.592 253.817 498.55 253.708 498.926 253.562L500.504 245.201C499.264 245.42 498.268 245.529 497.517 245.529H496.84C494.549 245.529 491.336 244.71 487.203 243.07L486.019 242.906H485.963C485.324 242.906 484.742 243.708 484.216 245.311C483.915 245.566 483.615 245.693 483.314 245.693C482.788 245.693 482.45 245.347 482.3 244.655L488.443 211.923L488.612 209.791V208.972C488.612 203.981 486.714 200.666 482.92 199.026C481.529 198.553 480.12 198.316 478.693 198.316H478.467C474.747 198.316 471.103 199.591 467.533 202.141C465.805 203.708 464.772 205.055 464.433 206.185C464.433 206.585 464.133 206.841 463.532 206.95H463.25C462.724 206.95 462.423 206.585 462.348 205.857C463.363 202.76 466.087 200.137 470.52 197.988C473.564 196.822 476.231 196.239 478.523 196.239ZM484.892 257.879L485.625 260.666H485.738C485.738 260.411 486.057 259.591 486.696 258.207L484.892 257.879Z" fill="#3A5190"/>
<path d="M307.758 196.666H308.832C313.728 196.666 317.25 198.942 319.397 203.493C320.113 205.492 320.47 207.619 320.47 209.876C320.47 211.764 319.491 217.295 317.532 226.472C316.666 230.728 316.233 234.28 316.233 237.129C316.233 241.643 317.608 244.271 320.357 245.011C320.998 245.159 321.826 245.27 322.843 245.344C324.802 245.344 327.74 244.77 331.657 243.623C332.109 243.623 332.429 243.901 332.618 244.456C331.299 251.93 330.527 255.834 330.301 256.167C330.038 256.389 329.247 256.5 327.928 256.5H325.555C331.318 261.31 334.2 267.527 334.2 275.149C334.2 283.068 331.262 289.507 325.386 294.465C323.616 296.13 320.659 297.444 316.516 298.406C314.105 298.998 311.694 299.294 309.284 299.294C301.524 299.294 295.63 296.149 291.599 289.858C289.189 286.343 287.983 282.68 287.983 278.868C287.983 272.43 291.524 266.158 298.605 260.052H298.549L289.396 261.273C288.906 261.273 288.586 260.922 288.435 260.219C289.113 257.296 289.452 254.039 289.452 250.45V247.841C289.452 247.101 290.394 246.731 292.277 246.731C292.277 246.657 292.673 246.602 293.464 246.565C291.995 237.129 291.26 228.544 291.26 220.811V217.758C291.26 210.431 291.863 205.917 293.068 204.215C295.027 201.144 298.53 198.831 303.577 197.277C305.197 196.87 306.59 196.666 307.758 196.666ZM293.238 219.257C293.238 227.656 294.104 237.536 295.837 248.896L295.893 250.173C295.705 250.691 295.385 250.95 294.933 250.95H294.876C294.085 250.95 293.69 250.154 293.69 248.563L291.599 248.785V249.34C291.599 253.299 291.336 256.519 290.808 258.998C297.061 258.258 301.637 257.481 304.538 256.667C306.195 256.148 308.154 255.778 310.414 255.556C310.866 255.556 311.167 255.926 311.318 256.667C311.318 257.333 310.414 257.74 308.606 257.888C304.613 258.591 302.617 259.127 302.617 259.497C294.255 265.899 290.074 272.245 290.074 278.535V279.257C290.074 284.178 292.541 288.933 297.475 293.521C300.677 296.001 304.462 297.24 308.832 297.24H309.792C313.634 297.24 317.532 296.371 321.487 294.631C325.706 292.411 328.964 288.23 331.262 282.087C331.789 279.978 332.053 277.795 332.053 275.538V274.816C332.053 267.046 328.625 260.848 321.77 256.222L321.6 255.723V255.445C321.6 254.816 322.297 254.502 323.691 254.502L328.663 254.446L330.245 246.121C327.458 246.935 325.16 247.342 323.352 247.342H322.391C318.361 247.342 315.743 245.288 314.538 241.181C314.312 239.96 314.18 238.572 314.143 237.018C314.143 233.429 315.367 225.936 317.815 214.539C318.154 212.837 318.323 211.32 318.323 209.987V209.543C318.323 203.512 315.743 199.941 310.583 198.831L308.38 198.665C303.709 198.665 299.528 200.441 295.837 203.993C294.481 205.547 293.803 207.342 293.803 209.377C293.577 210.228 293.388 213.521 293.238 219.257Z" fill="#3A5190"/>
<path d="M336.683 196.777C341.731 196.777 345.309 198.905 347.418 203.16C348.285 205.085 348.718 207.305 348.718 209.821V210.209C348.718 211.616 347.946 216.555 346.401 225.029C345.497 230.58 344.65 236.74 343.859 243.512H343.972C344.612 243.216 345.215 243.068 345.78 243.068H346.119C346.797 243.068 349.151 243.531 353.181 244.456L355.272 244.567H356.176C357.08 244.567 358.323 244.363 359.905 243.956H359.961C360.488 243.956 360.827 244.308 360.978 245.011L358.718 256.445C358.379 256.704 358.116 256.833 357.927 256.833L354.368 256.445C356.929 258.998 358.586 261.199 359.34 263.05C361.411 267.49 362.447 272.078 362.447 276.815C362.447 283.549 359.66 289.507 354.085 294.687C351.373 296.759 349.528 297.795 348.548 297.795C345.121 298.831 341.787 299.349 338.548 299.349C333.275 299.349 328.905 297.962 325.44 295.187L325.271 294.687V294.52C325.271 294.076 325.572 293.78 326.175 293.632H326.401C326.551 293.632 327.418 294.132 329 295.131C331.712 296.537 334.819 297.24 338.322 297.24H338.887C342.804 297.24 346.477 296.537 349.904 295.131C354.085 292.837 357.249 288.822 359.396 283.087C359.999 281.273 360.3 279.349 360.3 277.314V276.204C360.3 270.469 358.605 265.159 355.215 260.274C353.596 258.498 352.409 257.444 351.656 257.111C351.656 258.554 351.298 259.275 350.582 259.275L346.401 258.887C346.025 261.662 345.836 264.807 345.836 268.322C345.836 268.84 345.46 269.155 344.706 269.266C344.066 269.266 343.595 268.378 343.294 266.602C341.561 260.792 340.695 257.684 340.695 257.277C340.695 256.833 341.015 256.537 341.655 256.389L349.565 257.111L349.622 255.889C344.236 255.26 341.411 254.853 341.147 254.668C340.921 254.446 340.808 254.224 340.808 254.002V253.78C340.808 253.336 341.109 253.04 341.712 252.892L357.023 254.668L358.605 246.398C357.588 246.583 356.552 246.676 355.498 246.676C353.953 246.676 351.091 246.176 346.91 245.177L346.119 245.066C345.064 245.066 344.349 245.584 343.972 246.62C343.52 248.248 343.106 249.062 342.729 249.062H342.277C341.787 249.062 341.486 248.711 341.373 248.008C341.373 244.012 342.898 233.188 345.949 215.538C346.439 213.244 346.684 211.431 346.684 210.098C346.684 204.77 344.782 201.273 340.977 199.608C339.621 199.127 338.265 198.887 336.909 198.887H336.344C332.352 198.887 328.51 200.367 324.819 203.327C323.387 204.881 322.521 206.213 322.22 207.323C321.994 207.545 321.711 207.656 321.372 207.656H321.316C320.638 207.508 320.299 207.175 320.299 206.657C320.977 204.067 323.124 201.662 326.74 199.442C330.167 197.665 333.482 196.777 336.683 196.777ZM342.333 258.554L343.124 261.495H343.181C343.181 260.903 343.294 259.96 343.52 258.665H343.35L342.333 258.554Z" fill="#3A5190"/>
<path d="M365.1 196.611H365.27C370.694 196.611 374.404 199.09 376.4 204.048C377.003 205.751 377.304 207.638 377.304 209.71V209.821C376.476 219.331 375.289 230.95 373.745 244.678C373.669 244.678 373.575 245.344 373.462 246.676C373.462 248.6 374.517 249.951 376.626 250.728C377.38 250.95 378.246 251.061 379.225 251.061H379.395L381.768 250.95C382.257 251.135 382.502 251.449 382.502 251.893V252.06C382.502 252.245 381.975 253.651 380.92 256.278C388.34 260.126 392.05 266.435 392.05 275.205C392.05 281.606 389.96 287.083 385.779 291.634C383.105 294.964 380.223 297.092 377.135 298.017C373.443 299.053 370.016 299.571 366.852 299.571C361.541 299.571 357.247 298.202 353.97 295.464L353.913 295.076V294.909C353.913 294.354 354.271 294.021 354.987 293.91C355.138 293.91 356.155 294.52 358.038 295.742C360.675 296.889 363.405 297.462 366.23 297.462H367.36C370.788 297.462 374.366 296.796 378.095 295.464C379.413 294.872 381.108 293.54 383.18 291.468C385.817 288.507 387.474 286.121 388.152 284.308C389.32 281.458 389.904 278.665 389.904 275.927V274.428C389.904 265.547 385.195 259.553 375.779 256.445L364.196 252.67C363.029 252.078 362.445 251.357 362.445 250.506C362.671 249.506 363.368 249.007 364.535 249.007C366.306 249.007 368.321 250.173 370.581 252.504L379.056 255.39C379.545 254.169 379.79 253.429 379.79 253.17C375.572 253.17 372.878 251.727 371.711 248.84C371.522 247.989 371.428 247.286 371.428 246.731V246.565C372.973 232.541 374.234 220.311 375.214 209.876C375.214 204.141 373.01 200.57 368.603 199.164C367.925 198.942 366.758 198.776 365.1 198.665C360.844 198.665 356.851 200.237 353.122 203.382C351.691 204.937 350.9 206.158 350.75 207.046C350.486 207.379 350.147 207.545 349.733 207.545C349.205 207.545 348.885 207.157 348.772 206.38C349.751 203.604 351.767 201.329 354.817 199.553C358.207 197.591 361.635 196.611 365.1 196.611ZM348.829 247.064C349.017 247.064 350.034 247.712 351.88 249.007C355.985 251.375 361.032 253.503 367.021 255.39C373.5 257.166 376.739 258.572 376.739 259.608V259.775C376.739 260.256 376.4 260.589 375.722 260.774L375.044 260.607C371.73 264.641 369.714 266.953 368.999 267.545L368.603 267.601C367.925 267.453 367.586 267.083 367.586 266.491L370.468 258.554C364.253 256.815 358.998 254.909 354.704 252.837C352.03 251.542 349.789 250.191 347.981 248.785C347.83 248.563 347.755 248.341 347.755 248.119C347.943 247.416 348.301 247.064 348.829 247.064ZM372.389 259.275L371.711 261.273C371.937 261.125 372.445 260.552 373.236 259.553L372.389 259.275Z" fill="#3A5190"/>
<path d="M394.026 198.332C399.374 198.332 403.047 200.755 405.043 205.603C405.646 207.379 405.947 209.284 405.947 211.32V211.375C405.947 213.447 405.043 218.665 403.235 227.027C402.256 231.616 401.766 235.371 401.766 238.295V238.628C401.766 243.919 403.857 246.565 408.037 246.565H408.376C410.523 246.565 413.367 246.01 416.908 244.9H417.021C417.435 244.9 417.755 245.214 417.981 245.843L415.778 257.111C415.552 257.444 415.194 257.61 414.704 257.61L411.032 257.721C416.72 262.568 419.563 268.729 419.563 276.204C419.563 284.382 416.324 290.968 409.845 295.964C408.489 297.111 406.361 297.999 403.461 298.628C400.598 299.22 398.075 299.516 395.89 299.516C390.843 299.516 386.549 298.202 383.008 295.575C382.858 295.39 382.782 295.15 382.782 294.853V294.798C382.895 294.206 383.178 293.91 383.63 293.91H383.912C384.063 293.91 384.854 294.354 386.285 295.242C389.073 296.685 392.105 297.407 395.382 297.407H396.399C399.902 297.407 403.423 296.741 406.964 295.409C411.145 293.114 414.271 289.192 416.343 283.642C417.059 281.68 417.416 279.331 417.416 276.593V275.816C417.416 268.156 414.045 262.032 407.303 257.444C407.077 257.148 406.964 256.889 406.964 256.667C406.964 256.111 407.397 255.778 408.263 255.667L414.083 255.612L415.552 247.342C412.727 248.193 410.297 248.618 408.263 248.618C404.271 248.618 401.615 246.842 400.297 243.29C399.845 241.514 399.619 239.886 399.619 238.406C399.619 234.705 400.9 227.009 403.461 215.316C403.687 213.91 403.8 212.818 403.8 212.041V210.653C403.8 206.102 402.011 202.957 398.433 201.218C397.077 200.663 395.626 200.385 394.082 200.385H393.687C389.506 200.385 385.588 201.995 381.935 205.214C380.843 206.435 380.108 207.619 379.731 208.766C379.43 208.951 379.185 209.044 378.997 209.044H378.94C378.225 209.007 377.867 208.674 377.867 208.045C378.922 205.122 380.956 202.809 383.969 201.107C387.359 199.257 390.711 198.332 394.026 198.332ZM397.698 255.612C398.414 255.797 398.772 256.148 398.772 256.667C398.772 257.333 398.075 257.721 396.681 257.832C395.288 257.832 392.218 258.905 387.472 261.051C386.304 261.384 385.325 261.551 384.534 261.551C384.006 261.403 383.743 260.996 383.743 260.33C383.743 259.812 384.496 259.46 386.003 259.275C386.794 259.127 388.79 258.369 391.992 257C394.666 256.074 396.568 255.612 397.698 255.612Z" fill="#3A5190"/>
<path d="M421.708 196.666H422.047C427.245 196.666 430.861 198.998 432.895 203.66C433.611 205.436 433.968 207.471 433.968 209.765V209.932C433.968 212.448 433.441 215.593 432.386 219.368C431.143 222.513 429.43 224.789 427.245 226.195V226.25H427.301C429.524 226.028 431.332 225.677 432.725 225.196H432.895C433.309 225.196 433.611 225.492 433.799 226.084C432.895 233.595 432.368 237.536 432.217 237.906C432.217 238.202 430.936 238.387 428.375 238.461C429.091 240.866 430.334 243.716 432.104 247.009C435.532 252.152 438.206 256.426 440.127 259.83C441.483 262.309 442.763 265.214 443.969 268.544C445.438 273.577 446.172 277.055 446.172 278.979V279.479C446.172 285.695 444.119 290.543 440.014 294.021C437.98 295.908 436.115 297.129 434.42 297.684C430.654 298.757 427.245 299.294 424.194 299.294H423.177C418.243 299.294 414.024 297.906 410.521 295.131L410.408 294.742V294.576C410.559 293.91 410.898 293.577 411.425 293.577H411.538L414.815 295.464C417.565 296.648 420.578 297.24 423.855 297.24C427.245 297.24 430.823 296.63 434.59 295.409C440.88 291.745 444.025 286.787 444.025 280.533V278.646C444.025 276.463 443.065 272.559 441.144 266.935C439.637 262.828 436.247 256.889 430.974 249.118C428.074 244.049 426.435 240.163 426.058 237.462V237.407C426.058 236.703 427.17 236.352 429.392 236.352L430.409 236.296L431.482 227.749C428.77 228.267 425.833 228.526 422.669 228.526H421.765C418.638 228.526 415.644 228.174 412.781 227.471C412.216 227.323 411.331 227.249 410.126 227.249H409.448C407.451 227.249 404.947 227.619 401.933 228.359H401.82C401.331 228.359 401.029 228.008 400.916 227.305C400.916 226.565 402.027 226.065 404.25 225.806C406.095 225.362 407.998 225.14 409.956 225.14C411.275 225.14 413.76 225.51 417.414 226.25C419.41 226.435 421.275 226.528 423.008 226.528C423.158 226.306 424.156 225.677 426.002 224.641C428.224 222.975 429.787 220.644 430.691 217.647C431.332 215.094 431.727 212.541 431.878 209.987C431.878 204.4 429.806 200.829 425.663 199.275C424.119 198.905 422.819 198.72 421.765 198.72C417.358 198.72 413.309 200.367 409.617 203.66C408.525 204.807 407.809 205.954 407.47 207.101C407.169 207.397 406.83 207.545 406.453 207.545C405.964 207.545 405.643 207.175 405.493 206.435C405.643 205.251 406.83 203.549 409.052 201.329C413.083 198.221 417.301 196.666 421.708 196.666Z" fill="#3A5190"/>
<path d="M449.673 196.666H450.972C455.455 196.666 458.845 198.665 461.142 202.661C462.159 204.807 462.668 207.138 462.668 209.654V210.098L458.148 244.345H458.204C458.732 244.012 459.184 243.845 459.56 243.845H460.069C463.685 245.066 465.662 245.677 466.001 245.677C467.282 245.973 468.562 246.121 469.843 246.121C471.199 246.121 472.386 245.751 473.403 245.011L473.855 244.9C474.269 244.9 474.589 245.233 474.815 245.899C474.062 252.041 473.591 255.316 473.403 255.723C473.101 256.019 472.687 256.167 472.16 256.167H471.143L469.9 256.222C474.457 261.773 476.736 267.989 476.736 274.872V275.26C476.736 284.881 473.045 292.245 465.662 297.351C464.005 298.387 462.103 298.905 459.956 298.905C457.583 298.905 455.53 298.054 453.797 296.352C451.65 298.239 449.485 299.183 447.3 299.183C444.663 299.183 442.196 297.98 439.899 295.575L439.729 294.964C439.917 294.298 440.238 293.965 440.69 293.965H440.916C441.255 293.965 441.838 294.409 442.667 295.298C444.249 296.445 445.68 297.018 446.961 297.018H447.356C451.387 297.018 455.097 293.133 458.487 285.362C459.805 281.514 460.464 277.832 460.464 274.317C460.464 268.433 458.732 262.865 455.266 257.61L455.21 257.166C455.21 256.537 455.925 256.167 457.357 256.056C458.374 255.982 459.391 255.575 460.408 254.835C460.822 254.539 461.293 253.891 461.82 252.892C462.046 252.67 462.272 252.559 462.498 252.559H462.724C463.176 252.559 463.478 252.855 463.628 253.447V253.558C463.628 253.78 462.404 256.537 459.956 261.828C461.688 265.788 462.555 269.803 462.555 273.873V274.705C462.555 282.069 460.125 288.804 455.266 294.909C456.547 296.167 458.035 296.796 459.73 296.796H460.408C462.329 296.796 464.137 296.075 465.832 294.631C471.708 289.969 474.646 283.457 474.646 275.094C474.646 267.656 471.99 261.255 466.679 255.889C466.529 255.889 466.416 255.649 466.34 255.168C466.566 254.502 466.924 254.169 467.414 254.169C470.201 254.132 471.595 254.076 471.595 254.002L472.442 247.897H472.329C471.651 248.082 470.898 248.174 470.069 248.174H469.222C467.075 248.174 463.911 247.416 459.73 245.899C458.976 245.899 458.167 247.675 457.3 251.227C457.3 252.3 456.942 252.929 456.227 253.114H456.114C455.398 253.003 455.04 252.67 455.04 252.115C455.944 244.678 457.79 230.709 460.577 210.209C460.577 204.696 458.656 201.107 454.814 199.442C453.345 198.961 451.858 198.72 450.351 198.72C445.53 198.72 441.255 200.57 437.526 204.27C436.848 205.122 436.283 206.121 435.831 207.268C435.605 207.453 435.322 207.582 434.983 207.656C434.418 207.656 434.06 207.268 433.91 206.491C434.851 203.789 436.848 201.495 439.899 199.608C443.477 197.647 446.735 196.666 449.673 196.666ZM458.035 258.221L458.826 259.275L459.447 257.721H459.391L458.035 258.221Z" fill="#3A5190"/>
<path d="M478.994 196.611C484.568 196.611 488.354 199.109 490.35 204.104C490.953 205.954 491.254 207.897 491.254 209.932C491.254 211.819 490.068 218.683 487.695 230.524L485.604 242.069L486.621 241.902C487.374 241.902 489.559 242.568 493.175 243.901C494.832 244.419 496.339 244.678 497.695 244.678C498.787 244.678 500.426 244.4 502.61 243.845C503.138 244.03 503.401 244.382 503.401 244.9C502.158 252.152 501.424 255.982 501.198 256.389C501.198 256.648 500.068 256.907 497.808 257.166C499.993 259.386 501.612 261.773 502.667 264.326C504.211 268.396 504.983 272.43 504.983 276.426C504.983 283.309 502.309 289.285 496.961 294.354C494.625 296.315 492.685 297.444 491.141 297.74C487.713 298.776 484.324 299.294 480.971 299.294C475.736 299.294 471.348 297.906 467.807 295.131L467.75 294.742V294.52C467.826 293.891 468.127 293.577 468.654 293.577H468.88L471.988 295.409C474.775 296.593 477.581 297.185 480.406 297.185H481.649C485.152 297.185 488.712 296.5 492.328 295.131C496.509 292.874 499.71 288.841 501.932 283.031C502.535 281.07 502.836 278.979 502.836 276.759V275.871C502.836 269.618 501.01 264.234 497.356 259.719C495.623 257.795 494.079 256.833 492.723 256.833L484.474 255.556C484.474 256.593 484.719 257.111 485.209 257.111C488.636 257.592 490.35 257.943 490.35 258.165L490.52 258.72V258.831C490.52 259.312 490.124 259.738 489.333 260.108C488.165 261.81 487.582 264.271 487.582 267.49C487.393 267.86 487.186 268.082 486.96 268.156H486.452C485.811 268.156 485.322 267.212 484.983 265.325L483.062 258.887C480.802 258.628 479.672 258.295 479.672 257.888L479.559 257.444C479.747 256.778 480.086 256.445 480.576 256.445L482.553 256.667C482.327 256.037 482.214 255.371 482.214 254.668V254.391C482.327 253.651 482.685 253.281 483.288 253.281C490.896 254.539 495.322 255.168 496.565 255.168C498.109 255.094 499.07 254.983 499.446 254.835L501.028 246.343C499.785 246.565 498.787 246.676 498.034 246.676H497.356C495.058 246.676 491.838 245.843 487.695 244.178L486.508 244.012H486.452C485.811 244.012 485.228 244.826 484.7 246.454C484.399 246.713 484.098 246.842 483.796 246.842C483.269 246.842 482.93 246.491 482.779 245.788L488.938 212.541L489.107 210.376V209.543C489.107 204.474 487.205 201.107 483.401 199.442C482.007 198.961 480.595 198.72 479.163 198.72H478.937C475.208 198.72 471.555 200.015 467.976 202.605C466.244 204.196 465.208 205.566 464.869 206.713C464.869 207.12 464.568 207.379 463.965 207.49H463.682C463.155 207.49 462.854 207.12 462.778 206.38C463.795 203.234 466.526 200.57 470.971 198.387C474.022 197.203 476.696 196.611 478.994 196.611ZM485.378 259.22L486.113 262.05H486.226C486.226 261.791 486.546 260.959 487.186 259.553L485.378 259.22Z" fill="#3A5190"/>
<mask id="path-4-outside-1_716_414" maskUnits="userSpaceOnUse" x="161.151" y="204.813" width="97.9339" height="90.5287" fill="black">
<rect fill="white" x="161.151" y="204.813" width="97.9339" height="90.5287"/>
<path d="M177.395 276.31C178.008 276.391 178.858 275.414 179.947 273.38C175.173 269.328 172.176 266.133 170.957 263.794L169.544 259.749L169.845 258.874C171.511 257.37 173.203 257.941 174.922 260.584L178.016 264.133L179.797 265.086L179.647 265.408C180.569 266.546 181.342 267.073 181.968 266.988L182.009 267.819L183.217 268.804L186.657 263.425C188.261 262.703 189.345 262.691 189.909 263.387L190.276 269.143L189.708 270.235L187.864 273.025C190.398 275.297 192.571 276.709 194.384 277.259L194.659 284.187C193.998 284.722 192.977 284.396 191.595 283.209L185.704 278.465L184.708 277.741L181.49 281.876L179.926 282.477L179.502 282.188L176.96 277.527L177.395 276.31Z"/>
<path d="M185.817 258.683C191.799 265.216 197.788 268.728 203.782 269.22C205.971 267.869 206.207 266.303 204.491 264.521C200.113 260.282 193.933 258.3 185.951 258.575L185.817 258.683ZM178.835 252.163L179.675 251.914L180.461 252.144L181.7 251.141L186.958 250.775L194.344 251.283L194.21 251.624C202.074 253.906 206.779 257.015 208.325 260.953C210.362 266.354 209.948 271.08 207.082 275.129C204.284 277.261 198.871 275.733 190.844 270.546C184.688 265.307 180.904 261.386 179.491 258.782C178.396 255.922 178.177 253.715 178.835 252.163Z"/>
<path d="M209.462 252.416C212.175 255.275 213.73 256.61 214.126 256.423L214.392 251.684L213.359 251.656L209.462 252.416ZM191.258 242.871L193.302 242.082C198.172 244.902 201.621 246.29 203.647 246.246C206.008 246.642 209.399 246.269 213.82 245.13L216.865 246.124C219.172 249.312 219.944 255.749 219.18 265.436C218.455 265.735 217.751 265.373 217.07 264.35L215.839 262.087L214.888 263.954L213.989 263.584L205.85 256.57L200.346 252.577C195.543 250.855 193.249 249.619 193.463 248.869C191.703 245.682 190.968 243.682 191.258 242.871Z"/>
<path d="M223.641 242.136L224.064 242.658L224.445 242.349L223.811 241.566L223.641 242.136ZM209.621 224.815C210.471 223.838 211.617 223.565 213.059 223.994C216.958 229.33 220.697 233.365 224.277 236.099L227.867 239.014L229.952 239.289L229.977 240.333L234.193 242.774L234.46 242.324C234.564 242.972 236.121 243.375 239.131 243.533L240.315 247.53L240.097 250.301C237.203 250.625 234.107 249.672 230.808 247.442L227.853 245.312L224.734 249.333C225.241 251.805 225.27 254.453 224.821 257.278L223.964 257.739L222.773 256.541L221.293 254.712L221.064 250.375L218.922 240.867L217.051 236.528C212.405 232.661 209.929 228.756 209.621 224.815Z"/>
<path d="M220.812 223.007C222.887 222.192 224.859 222.679 226.729 224.469C230.757 227.418 233.854 228.879 236.022 228.854C236.518 228.453 236.605 227.806 236.282 226.914C235.529 226.659 234.126 224.835 232.073 221.441C231.142 218.602 230.996 217.069 231.632 216.842C233.301 216.201 234.455 216.275 235.095 217.066C235.961 219.669 240.912 223.51 249.947 228.591L252.768 231.297C254.028 236.751 254.224 239.619 253.357 239.9C250.637 242.101 247.182 243.745 242.991 244.832L241.251 244.943L239.203 244.206C237.419 241.327 236.646 239.358 236.884 238.301C237.734 237.48 238.83 237.391 240.171 238.034C244.439 236.731 247.08 235.602 248.095 234.647L240.367 229.661L240.047 230.552C240.559 231.002 240.393 232.655 239.549 235.511C236.994 237.579 231.401 235.477 222.768 229.206C221.226 226.13 220.574 224.064 220.812 223.007Z"/>
</mask>
<path d="M177.395 276.31C178.008 276.391 178.858 275.414 179.947 273.38C175.173 269.328 172.176 266.133 170.957 263.794L169.544 259.749L169.845 258.874C171.511 257.37 173.203 257.941 174.922 260.584L178.016 264.133L179.797 265.086L179.647 265.408C180.569 266.546 181.342 267.073 181.968 266.988L182.009 267.819L183.217 268.804L186.657 263.425C188.261 262.703 189.345 262.691 189.909 263.387L190.276 269.143L189.708 270.235L187.864 273.025C190.398 275.297 192.571 276.709 194.384 277.259L194.659 284.187C193.998 284.722 192.977 284.396 191.595 283.209L185.704 278.465L184.708 277.741L181.49 281.876L179.926 282.477L179.502 282.188L176.96 277.527L177.395 276.31Z" fill="#1C1C1C"/>
<path d="M185.817 258.683C191.799 265.216 197.788 268.728 203.782 269.22C205.971 267.869 206.207 266.303 204.491 264.521C200.113 260.282 193.933 258.3 185.951 258.575L185.817 258.683ZM178.835 252.163L179.675 251.914L180.461 252.144L181.7 251.141L186.958 250.775L194.344 251.283L194.21 251.624C202.074 253.906 206.779 257.015 208.325 260.953C210.362 266.354 209.948 271.08 207.082 275.129C204.284 277.261 198.871 275.733 190.844 270.546C184.688 265.307 180.904 261.386 179.491 258.782C178.396 255.922 178.177 253.715 178.835 252.163Z" fill="#1C1C1C"/>
<path d="M209.462 252.416C212.175 255.275 213.73 256.61 214.126 256.423L214.392 251.684L213.359 251.656L209.462 252.416ZM191.258 242.871L193.302 242.082C198.172 244.902 201.621 246.29 203.647 246.246C206.008 246.642 209.399 246.269 213.82 245.13L216.865 246.124C219.172 249.312 219.944 255.749 219.18 265.436C218.455 265.735 217.751 265.373 217.07 264.35L215.839 262.087L214.888 263.954L213.989 263.584L205.85 256.57L200.346 252.577C195.543 250.855 193.249 249.619 193.463 248.869C191.703 245.682 190.968 243.682 191.258 242.871Z" fill="#1C1C1C"/>
<path d="M223.641 242.136L224.064 242.658L224.445 242.349L223.811 241.566L223.641 242.136ZM209.621 224.815C210.471 223.838 211.617 223.565 213.059 223.994C216.958 229.33 220.697 233.365 224.277 236.099L227.867 239.014L229.952 239.289L229.977 240.333L234.193 242.774L234.46 242.324C234.564 242.972 236.121 243.375 239.131 243.533L240.315 247.53L240.097 250.301C237.203 250.625 234.107 249.672 230.808 247.442L227.853 245.312L224.734 249.333C225.241 251.805 225.27 254.453 224.821 257.278L223.964 257.739L222.773 256.541L221.293 254.712L221.064 250.375L218.922 240.867L217.051 236.528C212.405 232.661 209.929 228.756 209.621 224.815Z" fill="#1C1C1C"/>
<path d="M220.812 223.007C222.887 222.192 224.859 222.679 226.729 224.469C230.757 227.418 233.854 228.879 236.022 228.854C236.518 228.453 236.605 227.806 236.282 226.914C235.529 226.659 234.126 224.835 232.073 221.441C231.142 218.602 230.996 217.069 231.632 216.842C233.301 216.201 234.455 216.275 235.095 217.066C235.961 219.669 240.912 223.51 249.947 228.591L252.768 231.297C254.028 236.751 254.224 239.619 253.357 239.9C250.637 242.101 247.182 243.745 242.991 244.832L241.251 244.943L239.203 244.206C237.419 241.327 236.646 239.358 236.884 238.301C237.734 237.48 238.83 237.391 240.171 238.034C244.439 236.731 247.08 235.602 248.095 234.647L240.367 229.661L240.047 230.552C240.559 231.002 240.393 232.655 239.549 235.511C236.994 237.579 231.401 235.477 222.768 229.206C221.226 226.13 220.574 224.064 220.812 223.007Z" fill="#1C1C1C"/>
<path d="M177.395 276.31C178.008 276.391 178.858 275.414 179.947 273.38C175.173 269.328 172.176 266.133 170.957 263.794L169.544 259.749L169.845 258.874C171.511 257.37 173.203 257.941 174.922 260.584L178.016 264.133L179.797 265.086L179.647 265.408C180.569 266.546 181.342 267.073 181.968 266.988L182.009 267.819L183.217 268.804L186.657 263.425C188.261 262.703 189.345 262.691 189.909 263.387L190.276 269.143L189.708 270.235L187.864 273.025C190.398 275.297 192.571 276.709 194.384 277.259L194.659 284.187C193.998 284.722 192.977 284.396 191.595 283.209L185.704 278.465L184.708 277.741L181.49 281.876L179.926 282.477L179.502 282.188L176.96 277.527L177.395 276.31Z" stroke="#00BE5A" stroke-width="2" mask="url(#path-4-outside-1_716_414)"/>
<path d="M185.817 258.683C191.799 265.216 197.788 268.728 203.782 269.22C205.971 267.869 206.207 266.303 204.491 264.521C200.113 260.282 193.933 258.3 185.951 258.575L185.817 258.683ZM178.835 252.163L179.675 251.914L180.461 252.144L181.7 251.141L186.958 250.775L194.344 251.283L194.21 251.624C202.074 253.906 206.779 257.015 208.325 260.953C210.362 266.354 209.948 271.08 207.082 275.129C204.284 277.261 198.871 275.733 190.844 270.546C184.688 265.307 180.904 261.386 179.491 258.782C178.396 255.922 178.177 253.715 178.835 252.163Z" stroke="#00BE5A" stroke-width="2" mask="url(#path-4-outside-1_716_414)"/>
<path d="M209.462 252.416C212.175 255.275 213.73 256.61 214.126 256.423L214.392 251.684L213.359 251.656L209.462 252.416ZM191.258 242.871L193.302 242.082C198.172 244.902 201.621 246.29 203.647 246.246C206.008 246.642 209.399 246.269 213.82 245.13L216.865 246.124C219.172 249.312 219.944 255.749 219.18 265.436C218.455 265.735 217.751 265.373 217.07 264.35L215.839 262.087L214.888 263.954L213.989 263.584L205.85 256.57L200.346 252.577C195.543 250.855 193.249 249.619 193.463 248.869C191.703 245.682 190.968 243.682 191.258 242.871Z" stroke="#00BE5A" stroke-width="2" mask="url(#path-4-outside-1_716_414)"/>
<path d="M223.641 242.136L224.064 242.658L224.445 242.349L223.811 241.566L223.641 242.136ZM209.621 224.815C210.471 223.838 211.617 223.565 213.059 223.994C216.958 229.33 220.697 233.365 224.277 236.099L227.867 239.014L229.952 239.289L229.977 240.333L234.193 242.774L234.46 242.324C234.564 242.972 236.121 243.375 239.131 243.533L240.315 247.53L240.097 250.301C237.203 250.625 234.107 249.672 230.808 247.442L227.853 245.312L224.734 249.333C225.241 251.805 225.27 254.453 224.821 257.278L223.964 257.739L222.773 256.541L221.293 254.712L221.064 250.375L218.922 240.867L217.051 236.528C212.405 232.661 209.929 228.756 209.621 224.815Z" stroke="#00BE5A" stroke-width="2" mask="url(#path-4-outside-1_716_414)"/>
<path d="M220.812 223.007C222.887 222.192 224.859 222.679 226.729 224.469C230.757 227.418 233.854 228.879 236.022 228.854C236.518 228.453 236.605 227.806 236.282 226.914C235.529 226.659 234.126 224.835 232.073 221.441C231.142 218.602 230.996 217.069 231.632 216.842C233.301 216.201 234.455 216.275 235.095 217.066C235.961 219.669 240.912 223.51 249.947 228.591L252.768 231.297C254.028 236.751 254.224 239.619 253.357 239.9C250.637 242.101 247.182 243.745 242.991 244.832L241.251 244.943L239.203 244.206C237.419 241.327 236.646 239.358 236.884 238.301C237.734 237.48 238.83 237.391 240.171 238.034C244.439 236.731 247.08 235.602 248.095 234.647L240.367 229.661L240.047 230.552C240.559 231.002 240.393 232.655 239.549 235.511C236.994 237.579 231.401 235.477 222.768 229.206C221.226 226.13 220.574 224.064 220.812 223.007Z" stroke="#00BE5A" stroke-width="2" mask="url(#path-4-outside-1_716_414)"/>
<mask id="path-5-outside-2_716_414" maskUnits="userSpaceOnUse" x="488.983" y="192.239" width="20" height="20" fill="black">
<rect fill="white" x="488.983" y="192.239" width="20" height="20"/>
<path d="M498.573 202.329C498.495 200.942 498.134 199.673 497.489 198.521C496.767 197.232 496.405 196.411 496.405 196.06C496.405 195.435 496.63 194.937 497.079 194.565C497.548 194.175 498.163 193.98 498.925 193.98C499.647 193.98 500.243 194.155 500.712 194.507C501.2 194.858 501.444 195.317 501.444 195.884C501.444 196.294 501.093 197.163 500.39 198.491C499.745 199.683 499.384 200.952 499.306 202.3C500.595 201.812 501.698 201.079 502.616 200.103C503.612 199.028 504.286 198.433 504.638 198.315C504.853 198.257 505.058 198.228 505.253 198.228C505.604 198.228 505.946 198.325 506.278 198.521C506.786 198.853 507.157 199.37 507.392 200.073C507.509 200.444 507.567 200.796 507.567 201.128C507.567 201.421 507.528 201.694 507.45 201.948C507.255 202.534 506.884 202.905 506.337 203.062C506.22 203.101 506.034 203.12 505.78 203.12C505.292 203.12 504.55 203.032 503.554 202.857C503.007 202.759 502.47 202.71 501.942 202.71C501.142 202.71 500.351 202.817 499.569 203.032C500.429 204.107 501.454 204.917 502.646 205.464C503.974 206.089 504.745 206.548 504.96 206.841C505.214 207.192 505.341 207.564 505.341 207.954C505.341 208.13 505.321 208.296 505.282 208.452C505.126 209.038 504.745 209.556 504.14 210.005C503.573 210.435 502.997 210.649 502.411 210.649C502.392 210.649 502.382 210.64 502.382 210.62C501.776 210.62 501.308 210.396 500.976 209.946C500.741 209.614 500.526 208.696 500.331 207.192C500.136 205.884 499.677 204.663 498.954 203.53C498.212 204.663 497.763 205.874 497.606 207.163C497.431 208.628 497.235 209.507 497.021 209.8C496.649 210.288 496.171 210.552 495.585 210.591H495.438C494.892 210.591 494.335 210.386 493.769 209.976C493.183 209.565 492.802 209.067 492.626 208.482C492.548 208.286 492.509 208.091 492.509 207.896C492.509 207.564 492.616 207.251 492.831 206.958C493.085 206.626 493.896 206.128 495.263 205.464C496.454 204.898 497.479 204.097 498.339 203.062C497.538 202.847 496.757 202.739 495.995 202.739C495.468 202.739 494.95 202.788 494.442 202.886C493.388 203.101 492.626 203.208 492.157 203.208C491.981 203.208 491.845 203.189 491.747 203.149C491.161 202.974 490.761 202.603 490.546 202.036C490.429 201.782 490.37 201.499 490.37 201.187C490.37 200.855 490.429 200.503 490.546 200.132C490.761 199.448 491.112 198.931 491.601 198.579C491.933 198.345 492.265 198.228 492.597 198.228C492.772 198.228 492.948 198.257 493.124 198.315C493.515 198.433 494.237 199.038 495.292 200.132C496.21 201.089 497.304 201.821 498.573 202.329Z"/>
</mask>
<path d="M498.573 202.329C498.495 200.942 498.134 199.673 497.489 198.521C496.767 197.232 496.405 196.411 496.405 196.06C496.405 195.435 496.63 194.937 497.079 194.565C497.548 194.175 498.163 193.98 498.925 193.98C499.647 193.98 500.243 194.155 500.712 194.507C501.2 194.858 501.444 195.317 501.444 195.884C501.444 196.294 501.093 197.163 500.39 198.491C499.745 199.683 499.384 200.952 499.306 202.3C500.595 201.812 501.698 201.079 502.616 200.103C503.612 199.028 504.286 198.433 504.638 198.315C504.853 198.257 505.058 198.228 505.253 198.228C505.604 198.228 505.946 198.325 506.278 198.521C506.786 198.853 507.157 199.37 507.392 200.073C507.509 200.444 507.567 200.796 507.567 201.128C507.567 201.421 507.528 201.694 507.45 201.948C507.255 202.534 506.884 202.905 506.337 203.062C506.22 203.101 506.034 203.12 505.78 203.12C505.292 203.12 504.55 203.032 503.554 202.857C503.007 202.759 502.47 202.71 501.942 202.71C501.142 202.71 500.351 202.817 499.569 203.032C500.429 204.107 501.454 204.917 502.646 205.464C503.974 206.089 504.745 206.548 504.96 206.841C505.214 207.192 505.341 207.564 505.341 207.954C505.341 208.13 505.321 208.296 505.282 208.452C505.126 209.038 504.745 209.556 504.14 210.005C503.573 210.435 502.997 210.649 502.411 210.649C502.392 210.649 502.382 210.64 502.382 210.62C501.776 210.62 501.308 210.396 500.976 209.946C500.741 209.614 500.526 208.696 500.331 207.192C500.136 205.884 499.677 204.663 498.954 203.53C498.212 204.663 497.763 205.874 497.606 207.163C497.431 208.628 497.235 209.507 497.021 209.8C496.649 210.288 496.171 210.552 495.585 210.591H495.438C494.892 210.591 494.335 210.386 493.769 209.976C493.183 209.565 492.802 209.067 492.626 208.482C492.548 208.286 492.509 208.091 492.509 207.896C492.509 207.564 492.616 207.251 492.831 206.958C493.085 206.626 493.896 206.128 495.263 205.464C496.454 204.898 497.479 204.097 498.339 203.062C497.538 202.847 496.757 202.739 495.995 202.739C495.468 202.739 494.95 202.788 494.442 202.886C493.388 203.101 492.626 203.208 492.157 203.208C491.981 203.208 491.845 203.189 491.747 203.149C491.161 202.974 490.761 202.603 490.546 202.036C490.429 201.782 490.37 201.499 490.37 201.187C490.37 200.855 490.429 200.503 490.546 200.132C490.761 199.448 491.112 198.931 491.601 198.579C491.933 198.345 492.265 198.228 492.597 198.228C492.772 198.228 492.948 198.257 493.124 198.315C493.515 198.433 494.237 199.038 495.292 200.132C496.21 201.089 497.304 201.821 498.573 202.329Z" fill="#F0F757"/>
<path d="M498.573 202.329L498.202 203.258L499.66 203.841L499.572 202.273L498.573 202.329ZM497.489 198.521L498.362 198.032L498.362 198.032L497.489 198.521ZM497.079 194.565L497.716 195.336L497.719 195.334L497.079 194.565ZM500.712 194.507L500.112 195.307L500.12 195.313L500.128 195.318L500.712 194.507ZM500.39 198.491L501.269 198.967L501.273 198.959L500.39 198.491ZM499.306 202.3L498.307 202.242L498.218 203.781L499.66 203.235L499.306 202.3ZM502.616 200.103L503.345 200.788L503.349 200.783L502.616 200.103ZM504.638 198.315L504.375 197.351L504.348 197.358L504.321 197.367L504.638 198.315ZM506.278 198.521L506.826 197.684L506.806 197.671L506.785 197.659L506.278 198.521ZM507.392 200.073L508.345 199.772L508.343 199.765L508.34 199.757L507.392 200.073ZM507.45 201.948L508.399 202.265L508.403 202.254L508.406 202.242L507.45 201.948ZM506.337 203.062L506.062 202.1L506.041 202.106L506.021 202.113L506.337 203.062ZM503.554 202.857L503.378 203.841L503.38 203.841L503.554 202.857ZM499.569 203.032L499.304 202.068L497.84 202.471L498.788 203.657L499.569 203.032ZM502.646 205.464L503.071 204.559L503.063 204.555L502.646 205.464ZM504.96 206.841L505.771 206.255L505.766 206.25L504.96 206.841ZM505.282 208.452L506.248 208.71L506.25 208.702L506.252 208.695L505.282 208.452ZM504.14 210.005L503.544 209.202L503.535 209.208L504.14 210.005ZM502.382 210.62H503.382V209.62H502.382V210.62ZM500.976 209.946L500.159 210.523L500.165 210.532L500.171 210.541L500.976 209.946ZM500.331 207.192L501.323 207.064L501.322 207.054L501.32 207.045L500.331 207.192ZM498.954 203.53L499.797 202.993L498.965 201.689L498.118 202.982L498.954 203.53ZM497.606 207.163L496.614 207.043L496.614 207.044L497.606 207.163ZM497.021 209.8L497.817 210.405L497.822 210.398L497.827 210.391L497.021 209.8ZM495.585 210.591V211.591H495.618L495.651 211.589L495.585 210.591ZM493.769 209.976L494.355 209.166L494.349 209.161L494.342 209.156L493.769 209.976ZM492.626 208.482L493.584 208.194L493.571 208.151L493.554 208.11L492.626 208.482ZM492.831 206.958L492.037 206.351L492.031 206.359L492.025 206.367L492.831 206.958ZM495.263 205.464L494.833 204.561L494.826 204.564L495.263 205.464ZM498.339 203.062L499.108 203.7L500.105 202.5L498.598 202.096L498.339 203.062ZM494.442 202.886L494.254 201.904L494.243 201.906L494.442 202.886ZM491.747 203.149L492.118 202.221L492.077 202.204L492.034 202.192L491.747 203.149ZM490.546 202.036L491.481 201.682L491.469 201.649L491.454 201.617L490.546 202.036ZM490.546 200.132L491.499 200.433L491.5 200.432L490.546 200.132ZM491.601 198.579L491.024 197.762L491.016 197.768L491.601 198.579ZM493.124 198.315L492.808 199.264L492.822 199.269L492.837 199.273L493.124 198.315ZM495.292 200.132L496.014 199.44L496.012 199.438L495.292 200.132ZM498.573 202.329L499.572 202.273C499.485 200.743 499.085 199.324 498.362 198.032L497.489 198.521L496.616 199.009C497.183 200.022 497.505 201.142 497.575 202.385L498.573 202.329ZM497.489 198.521L498.362 198.032C498.007 197.4 497.754 196.904 497.591 196.535C497.51 196.351 497.459 196.214 497.429 196.117C497.394 196.006 497.405 196 497.405 196.06H496.405H495.405C495.405 196.295 495.461 196.524 495.517 196.706C495.578 196.902 495.662 197.116 495.761 197.342C495.96 197.794 496.249 198.352 496.617 199.01L497.489 198.521ZM496.405 196.06H497.405C497.405 195.708 497.515 195.502 497.716 195.336L497.079 194.565L496.442 193.795C495.745 194.371 495.405 195.161 495.405 196.06H496.405ZM497.079 194.565L497.719 195.334C497.967 195.127 498.337 194.98 498.925 194.98V193.98V192.98C497.989 192.98 497.129 193.223 496.439 193.797L497.079 194.565ZM498.925 193.98V194.98C499.483 194.98 499.853 195.113 500.112 195.307L500.712 194.507L501.312 193.707C500.633 193.198 499.812 192.98 498.925 192.98V193.98ZM500.712 194.507L500.128 195.318C500.374 195.496 500.444 195.662 500.444 195.884H501.444H502.444C502.444 194.973 502.026 194.221 501.296 193.695L500.712 194.507ZM501.444 195.884H500.444C500.444 195.877 500.427 196.039 500.254 196.468C500.096 196.858 499.85 197.374 499.506 198.023L500.39 198.491L501.273 198.959C501.633 198.281 501.914 197.698 502.108 197.218C502.285 196.779 502.444 196.3 502.444 195.884H501.444ZM500.39 198.491L499.51 198.015C498.796 199.335 498.394 200.747 498.307 202.242L499.306 202.3L500.304 202.358C500.374 201.157 500.694 200.03 501.269 198.967L500.39 198.491ZM499.306 202.3L499.66 203.235C501.087 202.694 502.32 201.878 503.345 200.788L502.616 200.103L501.888 199.418C501.077 200.28 500.102 200.929 498.951 201.365L499.306 202.3ZM502.616 200.103L503.349 200.783C503.837 200.257 504.229 199.866 504.531 199.599C504.871 199.299 504.992 199.251 504.954 199.264L504.638 198.315L504.321 197.367C503.932 197.497 503.54 197.806 503.206 198.101C502.834 198.43 502.391 198.874 501.883 199.423L502.616 200.103ZM504.638 198.315L504.901 199.28C505.042 199.242 505.158 199.228 505.253 199.228V198.228V197.228C504.957 197.228 504.663 197.272 504.375 197.351L504.638 198.315ZM505.253 198.228V199.228C505.409 199.228 505.578 199.269 505.771 199.383L506.278 198.521L506.785 197.659C506.315 197.382 505.8 197.228 505.253 197.228V198.228ZM506.278 198.521L505.731 199.358C506.011 199.541 506.264 199.851 506.443 200.39L507.392 200.073L508.34 199.757C508.051 198.889 507.561 198.164 506.826 197.684L506.278 198.521ZM507.392 200.073L506.438 200.374C506.53 200.664 506.567 200.914 506.567 201.128H507.567H508.567C508.567 200.678 508.488 200.224 508.345 199.772L507.392 200.073ZM507.567 201.128H506.567C506.567 201.331 506.54 201.505 506.494 201.654L507.45 201.948L508.406 202.242C508.516 201.884 508.567 201.51 508.567 201.128H507.567ZM507.45 201.948L506.502 201.632C506.4 201.937 506.261 202.043 506.062 202.1L506.337 203.062L506.612 204.023C507.507 203.767 508.11 203.132 508.399 202.265L507.45 201.948ZM506.337 203.062L506.021 202.113C506.056 202.101 506.059 202.105 506.005 202.111C505.957 202.116 505.884 202.12 505.78 202.12V203.12V204.12C506.053 204.12 506.375 204.103 506.653 204.01L506.337 203.062ZM505.78 203.12V202.12C505.384 202.12 504.713 202.046 503.727 201.872L503.554 202.857L503.38 203.841C504.386 204.019 505.2 204.12 505.78 204.12V203.12ZM503.554 202.857L503.73 201.872C503.128 201.765 502.532 201.71 501.942 201.71V202.71V203.71C502.408 203.71 502.886 203.753 503.378 203.841L503.554 202.857ZM501.942 202.71V201.71C501.051 201.71 500.171 201.83 499.304 202.068L499.569 203.032L499.834 203.996C500.53 203.805 501.232 203.71 501.942 203.71V202.71ZM499.569 203.032L498.788 203.657C499.74 204.847 500.888 205.758 502.228 206.373L502.646 205.464L503.063 204.555C502.02 204.077 501.117 203.366 500.35 202.408L499.569 203.032ZM502.646 205.464L502.22 206.369C502.87 206.675 503.363 206.93 503.709 207.136C504.101 207.37 504.18 207.468 504.154 207.432L504.96 206.841L505.766 206.25C505.525 205.92 505.111 205.643 504.732 205.418C504.306 205.164 503.749 204.878 503.071 204.559L502.646 205.464ZM504.96 206.841L504.149 207.426C504.294 207.627 504.341 207.797 504.341 207.954H505.341H506.341C506.341 207.33 506.133 206.758 505.771 206.255L504.96 206.841ZM505.341 207.954H504.341C504.341 208.056 504.33 208.14 504.312 208.21L505.282 208.452L506.252 208.695C506.313 208.452 506.341 208.204 506.341 207.954H505.341ZM505.282 208.452L504.316 208.195C504.231 208.513 504.013 208.854 503.544 209.202L504.14 210.005L504.735 210.808C505.477 210.258 506.021 209.563 506.248 208.71L505.282 208.452ZM504.14 210.005L503.535 209.208C503.105 209.535 502.735 209.649 502.411 209.649V210.649V211.649C503.259 211.649 504.042 211.334 504.744 210.802L504.14 210.005ZM502.411 210.649V209.649C502.556 209.649 502.847 209.686 503.096 209.935C503.345 210.184 503.382 210.476 503.382 210.62H502.382H501.382C501.382 210.784 501.423 211.091 501.682 211.349C501.941 211.608 502.247 211.649 502.411 211.649V210.649ZM502.382 210.62V209.62C502.063 209.62 501.906 209.522 501.78 209.352L500.976 209.946L500.171 210.541C500.71 211.269 501.49 211.62 502.382 211.62V210.62ZM500.976 209.946L501.793 209.37C501.798 209.377 501.719 209.237 501.612 208.781C501.516 208.368 501.418 207.8 501.323 207.064L500.331 207.192L499.339 207.321C499.439 208.089 499.547 208.732 499.665 209.237C499.773 209.699 499.919 210.183 500.159 210.523L500.976 209.946ZM500.331 207.192L501.32 207.045C501.104 205.595 500.594 204.242 499.797 202.993L498.954 203.53L498.111 204.068C498.759 205.084 499.168 206.173 499.342 207.34L500.331 207.192ZM498.954 203.53L498.118 202.982C497.295 204.238 496.789 205.594 496.614 207.043L497.606 207.163L498.599 207.283C498.736 206.154 499.129 205.088 499.791 204.078L498.954 203.53ZM497.606 207.163L496.614 207.044C496.527 207.761 496.439 208.311 496.352 208.704C496.252 209.152 496.183 209.251 496.214 209.209L497.021 209.8L497.827 210.391C498.073 210.056 498.208 209.569 498.304 209.138C498.412 208.652 498.51 208.03 498.599 207.282L497.606 207.163ZM497.021 209.8L496.224 209.195C496.019 209.464 495.802 209.574 495.518 209.593L495.585 210.591L495.651 211.589C496.54 211.529 497.279 211.112 497.817 210.405L497.021 209.8ZM495.585 210.591V209.591H495.438V210.591V211.591H495.585V210.591ZM495.438 210.591V209.591C495.154 209.591 494.799 209.487 494.355 209.166L493.769 209.976L493.182 210.786C493.871 211.285 494.629 211.591 495.438 211.591V210.591ZM493.769 209.976L494.342 209.156C493.908 208.852 493.684 208.529 493.584 208.194L492.626 208.482L491.668 208.769C491.919 209.605 492.457 210.278 493.195 210.795L493.769 209.976ZM492.626 208.482L493.554 208.11C493.52 208.024 493.509 207.954 493.509 207.896H492.509H491.509C491.509 208.228 491.576 208.549 491.697 208.853L492.626 208.482ZM492.509 207.896H493.509C493.509 207.796 493.536 207.688 493.637 207.549L492.831 206.958L492.025 206.367C491.697 206.814 491.509 207.331 491.509 207.896H492.509ZM492.831 206.958L493.625 207.566C493.615 207.579 493.639 207.546 493.741 207.466C493.835 207.393 493.97 207.3 494.153 207.188C494.519 206.963 495.03 206.688 495.7 206.363L495.263 205.464L494.826 204.564C494.128 204.903 493.551 205.21 493.106 205.484C492.696 205.736 492.286 206.025 492.037 206.351L492.831 206.958ZM495.263 205.464L495.692 206.367C497.017 205.737 498.158 204.845 499.108 203.7L498.339 203.062L497.569 202.423C496.801 203.348 495.891 204.058 494.833 204.561L495.263 205.464ZM498.339 203.062L498.598 202.096C497.72 201.86 496.852 201.739 495.995 201.739V202.739V203.739C496.662 203.739 497.356 203.833 498.08 204.027L498.339 203.062ZM495.995 202.739V201.739C495.406 201.739 494.825 201.794 494.254 201.904L494.442 202.886L494.631 203.868C495.076 203.782 495.53 203.739 495.995 203.739V202.739ZM494.442 202.886L494.243 201.906C493.192 202.12 492.516 202.208 492.157 202.208V203.208V204.208C492.736 204.208 493.584 204.081 494.642 203.866L494.442 202.886ZM492.157 203.208V202.208C492.132 202.208 492.111 202.207 492.095 202.206C492.079 202.205 492.069 202.204 492.064 202.203C492.059 202.203 492.062 202.203 492.07 202.205C492.078 202.207 492.095 202.212 492.118 202.221L491.747 203.149L491.376 204.078C491.645 204.186 491.928 204.208 492.157 204.208V203.208ZM491.747 203.149L492.034 202.192C491.743 202.104 491.584 201.954 491.481 201.682L490.546 202.036L489.611 202.391C489.937 203.251 490.579 203.843 491.46 204.107L491.747 203.149ZM490.546 202.036L491.454 201.617C491.404 201.509 491.37 201.371 491.37 201.187H490.37H489.37C489.37 201.627 489.453 202.055 489.638 202.455L490.546 202.036ZM490.37 201.187H491.37C491.37 200.973 491.408 200.723 491.499 200.433L490.546 200.132L489.592 199.831C489.45 200.283 489.37 200.737 489.37 201.187H490.37ZM490.546 200.132L491.5 200.432C491.663 199.914 491.903 199.593 492.185 199.391L491.601 198.579L491.016 197.768C490.321 198.268 489.859 198.983 489.592 199.832L490.546 200.132ZM491.601 198.579L492.177 199.396C492.379 199.254 492.514 199.228 492.597 199.228V198.228V197.228C492.016 197.228 491.486 197.436 491.024 197.762L491.601 198.579ZM492.597 198.228V199.228C492.659 199.228 492.728 199.238 492.808 199.264L493.124 198.315L493.44 197.367C493.168 197.276 492.886 197.228 492.597 197.228V198.228ZM493.124 198.315L492.837 199.273C492.817 199.267 492.958 199.323 493.317 199.624C493.64 199.895 494.056 200.291 494.572 200.826L495.292 200.132L496.012 199.438C495.473 198.879 495.001 198.426 494.601 198.091C494.237 197.786 493.822 197.481 493.411 197.358L493.124 198.315ZM495.292 200.132L494.57 200.824C495.59 201.887 496.804 202.699 498.202 203.258L498.573 202.329L498.945 201.401C497.803 200.944 496.83 200.291 496.014 199.44L495.292 200.132Z" fill="#1C1C1C" mask="url(#path-5-outside-2_716_414)"/>
</svg>
