<svg width="553" height="155" viewBox="0 0 553 155" fill="none" xmlns="http://www.w3.org/2000/svg">
<path d="M41.6524 53.2167C41.6524 54.8241 41.3656 56.1444 40.7918 57.1778C40.2181 58.0963 39.4723 58.9 38.5543 59.5889C37.6364 60.2778 36.6037 60.8518 35.4562 61.3111C34.3088 61.7704 33.2187 62.287 32.186 62.8611C38.8412 65.9611 42.054 71.0704 41.8246 78.1889V155H25.1292V70.6111H16.8675V155H0V0H28.5715C33.1613 0 36.4889 1.03333 38.5543 3.1C40.7345 5.05185 41.8246 7.75 41.8246 11.1944L41.6524 53.2167ZM24.6128 54.5944V15.5H12.9088L16.6739 20.9896L17.2117 54.5944H24.6128Z" fill="#1C1C1C"/>
<path d="M72.5031 70.6111L72.6753 85.5944V140.017H84.5514V155H55.6356V0H84.3792V15.5H72.8474V55.2833H84.5514V70.6111H72.5031Z" fill="#1C1C1C"/>
<path d="M140.157 0V155H123.462V70.7833H115.2V155H98.1608V14.1222C98.1608 9.3 99.3656 5.74074 101.775 3.44444C104.185 1.14815 108.086 0 113.479 0H140.157ZM115.545 55.4556H122.946V15.5H110.801L114.566 21.5278L115.545 55.4556Z" fill="#1C1C1C"/>
<path d="M153.964 155V0H170.144V140.017H182.536V155H153.964Z" fill="#1C1C1C"/>
<path d="M196.153 0H213.193V155H196.153V0Z" fill="#1C1C1C"/>
<path d="M254.156 155H237.288V15.5H224.896V0H266.032V15.5H254.156V155Z" fill="#1C1C1C"/>
<path d="M304.909 0H321.776C321.547 1.26296 321.26 2.87037 320.916 4.82222C320.572 6.65926 320.17 8.5537 319.711 10.5056C319.367 12.4574 319.022 14.3519 318.678 16.1889C318.334 18.0259 317.99 19.5759 317.646 20.8389L308.007 69.0611L298.54 121.589L292.344 155H275.993C276.911 150.293 277.714 145.643 278.403 141.05C279.206 136.457 280.009 131.865 280.812 127.272L290.967 70.6111L276.165 0H292.344L298.885 34.7889L304.909 0Z" fill="#1C1C1C"/>
<path d="M398.75 155H345.222C340.517 154.656 337.075 153.45 334.895 151.383C332.829 149.317 331.797 145.872 331.797 141.05V0H349.009V138.983H357.098V0H373.793V139.156H382.399V0H398.923V2.41111C398.923 25.4889 398.923 48.4518 398.923 71.3C398.923 94.0333 398.865 116.939 398.75 140.017V155Z" fill="#1C1C1C"/>
<path d="M454.642 0V155H437.946V70.7833H429.685V155H412.645V14.1222C412.645 9.3 413.85 5.74074 416.259 3.44444C418.669 1.14815 422.57 0 427.963 0H454.642ZM430.029 55.4556H437.43V15.5L427.066 15.6076L430.029 21.7925V55.4556Z" fill="#1C1C1C"/>
<path d="M510.101 53.2167C510.101 54.8241 509.814 56.1444 509.241 57.1778C508.667 58.0963 507.921 58.9 507.003 59.5889C506.085 60.2778 505.052 60.8518 503.905 61.3111C502.757 61.7704 501.667 62.287 500.635 62.8611C507.29 65.9611 510.503 71.0704 510.273 78.1889V155H493.578V70.6111H485.316V155H468.449V0H497.02C501.61 0 504.938 1.03333 507.003 3.1C509.183 5.05185 510.273 7.75 510.273 11.1944L510.101 53.2167ZM493.061 54.5944V15.5H483.005L485.66 20.9896V54.5944H493.061Z" fill="#1C1C1C"/>
<path d="M537.329 70.6111L541.124 75.8854V140.017H553V155H524.084V0H552.828V15.5H537.329L540.952 20.9896L541.296 55.2833H553V70.6111H537.329Z" fill="#1C1C1C"/>
</svg>
